<svg xmlns="http://www.w3.org/2000/svg" xml:space="preserve" width="113mm" height="116mm" viewBox="0 0 113 116"><path d="M9.146 106.977c-.966-.147-.919-.465.133-.882 6.313-2.503 12.263-9.553 18.244-21.617 1.448-2.92 2.269-4.298 2.56-4.296.236.002 1.076.175 1.868.386.792.21 2.843.519 4.559.684 3.578.345 6.286.093 10.075-.936 1.273-.346 2.315-.532 2.315-.413 0 .264-5.65 5.548-7.705 7.206-3.722 3.002-8.52 6.109-13.594 8.803-3.525 1.871-4.682 2.822-7.44 6.112-2.653 3.166-4.234 4.407-6.186 4.855-1.17.27-3.398.314-4.829.098m82.653-.115c-1.928-.555-3.323-1.729-6.415-5.4-2.332-2.77-3.762-3.86-8.32-6.35-4.395-2.4-8.62-5.176-11.92-7.834-3.099-2.497-7.859-6.996-7.738-7.315.054-.144.644-.097 1.416.113 6.083 1.658 11.398 1.722 16.984.206.526-.143.79.26 2.816 4.301 5.934 11.839 10.79 17.815 16.9 20.797 1.267.618 2.31 1.199 2.315 1.29.033.505-4.453.648-6.038.192M47.63 88.857c-.756-.757-.068-2.968 1.409-4.526.843-.89 1.6-.845 1.538.091-.066.998-1.148 3.694-1.707 4.254-.582.582-.806.614-1.24.18m9.116-.807c-.353-.619-.848-1.762-1.1-2.54-.416-1.291-.42-1.453-.037-1.835.381-.382.469-.373.996.093 1.66 1.471 2.62 4.235 1.767 5.089-.553.553-.965.35-1.626-.807m-4.183-6.48c-.495-.11-.835-1.134-.589-1.775.414-1.08 1.84-1.083 2.111-.005.318 1.267-.347 2.045-1.522 1.781zm-20.788-4.832c-8.58-2.248-14.974-5.455-19.258-9.656-2.672-2.62-3.865-4.47-4.51-6.993-.389-1.514-.39-1.866-.007-4.109.83-4.873 2.546-9.712 5.727-16.15C19.41 28.322 28.05 18.288 39.375 10.04c4.004-2.915 11.654-6.59 13.72-6.59 1.381 0 3.607.835 7.182 2.694 17.302 9.001 32.2 27.874 37.046 46.932 1.308 5.141 1.047 7.624-1.159 11.046-3.341 5.185-11.516 9.976-21.329 12.5-3.782.974-3.957.753-.403-.512 9.457-3.363 15.889-7.665 18.643-12.468 1.118-1.95 1.68-4.132 1.465-5.693-.515-3.747-5.444-10.915-12.015-17.474-7.544-7.529-15.22-11.94-25.274-14.525-2.891-.744-5.545-.703-8.785.133-12.257 3.166-23.211 10.72-31.44 21.684-4.123 5.492-5.883 9.185-5.587 11.724.342 2.94 2.764 6.582 6.19 9.312 3.728 2.97 8.42 5.335 15 7.56 2.906.984 2.37 1.22-.854.375m22.157-56.102c.596-1.272 2.84-3.693 3.423-3.693.513 0 .28-.73-.366-1.154-1.166-.764-2.422-2.242-3.056-3.597-.344-.734-.723-1.334-.841-1.334-.119 0-.565.691-.992 1.537-.701 1.39-1.985 2.8-3.353 3.686-.485.314-.473.356.285.926 1.394 1.05 2.517 2.342 3.19 3.67.361.712.752 1.293.87 1.293.119 0 .497-.6.84-1.334m-1.725 45.21c-.945-.522-1.72-1.359-1.72-1.857 0-.612 1.48-1.535 2.461-1.537.834 0 2.036.551 2.551 1.171.469.565-.16 1.51-1.394 2.096-1.072.509-1.194.517-1.898.128m-26.145-2.984c-3.442-1.228-3.094-4.098.598-4.934 2.066-.468 5.095.809 5.47 2.307.54 2.145-3.056 3.701-6.068 2.627m49.65-.002c-2.082-.906-2.486-2.298-1.077-3.707 1.486-1.486 4.096-1.752 6.313-.644 1.037.519 1.29.927 1.29 2.088 0 1.935-4.052 3.34-6.527 2.263" style="fill:#e6142c"/><path d="M44.865 114.648a8.4 8.4 0 0 1 1.72 0c.473.058.086.106-.86.106s-1.333-.048-.86-.106m14.817.005a3.8 3.8 0 0 1 1.19 0c.328.063.06.114-.595.114s-.923-.051-.595-.114m-28.304-.272a13 13 0 0 1 2.117.002c.542.056.033.102-1.131.101-1.165 0-1.608-.047-.986-.103zm41.665 0a11.5 11.5 0 0 1 1.985 0c.545.058.099.104-.993.104-1.091 0-1.537-.046-.992-.103m-54.493-3.443c.988-.05 2.536-.05 3.44.001s.095.093-1.797.093-2.631-.043-1.643-.094m65.606 0c.982-.05 2.59-.05 3.572 0s.178.093-1.786.093c-1.965 0-2.769-.042-1.786-.092m-71.699-.258c.403-.06.998-.059 1.323.004.326.063-.003.113-.731.11-.728-.001-.994-.053-.592-.113zm80.298.003a3.8 3.8 0 0 1 1.19 0c.328.063.06.115-.595.115s-.923-.052-.595-.115M8.22 107.134c-.473-.136-.86-.342-.86-.457s.912-.61 2.025-1.1c2.658-1.167 4.299-2.297 6.672-4.594 3.801-3.68 7.291-8.907 11.201-16.778 1.177-2.37 2.212-4.351 2.3-4.405.088-.053 1.231.154 2.541.46 1.947.455 3.226.556 7.011.552 4.383-.004 4.776-.047 7.338-.809 4.12-1.224 4.061-.86-.547 3.418-5.622 5.22-10.432 8.653-17.242 12.309-4.32 2.32-5.56 3.308-8.308 6.628-2.431 2.937-3.758 4.068-5.502 4.69-1.148.41-5.321.464-6.629.086m5.755-.255c1.952-.449 3.533-1.69 6.186-4.855 2.758-3.29 3.915-4.24 7.44-6.112 5.074-2.694 9.872-5.8 13.594-8.803 2.055-1.658 7.705-6.942 7.705-7.206 0-.12-1.042.066-2.315.412-3.789 1.03-6.497 1.282-10.075.937-1.716-.166-3.767-.473-4.559-.684-.792-.21-1.632-.385-1.868-.386-.291-.002-1.112 1.375-2.56 4.296-5.98 12.063-11.93 19.114-18.244 21.617-.473.188-.86.438-.86.556 0 .483 3.774.638 5.556.228m77.39.238c-1.552-.585-2.735-1.532-4.79-3.835-3.904-4.373-5.103-5.38-8.742-7.343-7.311-3.944-11.572-6.958-17.404-12.31-3.332-3.058-4.226-4.244-3.198-4.244.217 0 1.556.314 2.977.698 3.493.944 8.614 1.146 12.24.483 1.382-.253 2.891-.515 3.353-.583l.84-.122 2.651 5.252c5.98 11.845 11.102 17.809 17.645 20.54 1.782.744 1.937.865 1.568 1.233-.514.515-5.923.69-7.14.231m5.656-.116c.455-.091.822-.24.816-.331s-1.048-.672-2.315-1.29c-6.11-2.982-10.966-8.958-16.9-20.797-2.026-4.04-2.29-4.444-2.816-4.301-5.586 1.516-10.901 1.452-16.984-.206-.772-.21-1.362-.257-1.416-.114-.121.32 4.639 4.82 7.739 7.316 3.298 2.657 7.524 5.435 11.918 7.834 4.56 2.49 5.99 3.58 8.321 6.35 4.034 4.79 5.373 5.63 9.057 5.68.965.013 2.125-.05 2.58-.141m-3.62-6.793c-.872-.9-1.036-1.36-.583-1.64.152-.093.193.018.097.267-.106.276.148.75.717 1.337.484.5.82.908.748.908-.073 0-.513-.392-.978-.872m-79.03-1.773c.865-.874 1.631-1.588 1.704-1.588s-.574.714-1.439 1.588c-.864.873-1.63 1.587-1.703 1.587-.072 0 .575-.714 1.439-1.587m90.463-4.564-.504-.596.587.496c.344.291.809.438 1.125.356.296-.078.471-.033.39.099-.268.433-1.084.251-1.598-.355m-9.007-4.432c0-1.383.044-1.948.099-1.257.054.691.054 1.822 0 2.514-.055.69-.1.125-.1-1.257m-5.844-.265c0-.655.051-.923.114-.595.063.327.063.863 0 1.19-.063.328-.114.06-.114-.595m-42.497.046c-.55-.608-.566-2.21-.032-3.334.223-.47.88-1.319 1.462-1.886.864-.844 1.14-.98 1.512-.746.69.432.695 1.287.018 3.203-.575 1.628-1.708 3.246-2.273 3.246-.137 0-.446-.217-.687-.483m1.384-.545c.56-.56 1.641-3.255 1.707-4.253.062-.936-.695-.981-1.538-.091-1.477 1.558-2.165 3.77-1.409 4.526.434.433.658.4 1.24-.182m8.095.337c-.663-.716-1.664-3.077-1.896-4.471-.098-.588.014-.93.427-1.303.555-.502.566-.5 1.49.397 1.295 1.254 2.313 3.398 2.079 4.38-.193.81-.83 1.688-1.223 1.688-.13 0-.525-.311-.877-.691m1.407-.155c.854-.854-.106-3.618-1.767-5.09-.527-.466-.614-.474-.996-.092s-.379.543.038 1.835c.576 1.786 1.64 3.664 2.075 3.664.183 0 .476-.143.65-.317m-35.081-3.775c.464-.942.887-1.668.94-1.615.119.119-1.481 3.326-1.658 3.326-.07 0 .253-.77.718-1.711m66.442-1.067c0-1.019.049-1.403.106-.854s.056 1.382-.002 1.852-.105.02-.104-.998zm11.003.843c.12-.12.68-.177 1.244-.128l1.027.09-1.244.127c-.685.07-1.147.03-1.027-.09m2.139-1.716c0-.165-.383-.75-.85-1.3-.762-.898-.773-.934-.108-.34.837.745 1.342 1.556 1.112 1.786-.085.084-.154.019-.154-.146m-50.913-1.527c-.948-.948-.217-3.03 1.06-3.02 1.035.008 1.818 1.148 1.543 2.246-.286 1.14-1.79 1.587-2.603.774m2.187-.76c.254-1.29-.589-2.247-1.533-1.741-.616.33-.846.944-.648 1.732.252 1.003 1.984 1.01 2.181.01m44.691-.334a3.8 3.8 0 0 1 1.19 0c.328.063.06.114-.595.114-.654 0-.922-.051-.595-.114M35.76 77.927c-6.855-1.072-14.598-4.026-20.033-7.642-4.409-2.934-7.843-7.522-8.255-11.031-.634-5.398 4.45-18.562 10.874-28.156 8.19-12.232 20.537-22.833 31.737-27.25 1.572-.62 2.112-.707 3.666-.596 1.608.115 2.276.359 5.69 2.075q15.269 7.676 26.684 23.39c5.56 7.656 10.355 18.086 12.01 26.127.628 3.057.56 4.63-.302 6.934-.922 2.464-3.602 5.701-6.464 7.809-5.782 4.257-16.011 8.051-23.284 8.636-2.867.23-2.366-.184 1.323-1.096C85.46 73.16 96.02 64.317 93.883 56.63c-1.168-4.205-9.622-14.83-15.73-19.769-5.93-4.796-12.863-8.395-19.772-10.265-3.853-1.043-5.908-1.113-9.216-.311-7.87 1.906-15.845 5.992-22.157 11.35-5.164 4.385-11.265 11.734-13.733 16.545-1.111 2.165-1.288 2.731-1.368 4.387-.088 1.796-.03 2.025 1.037 4.15 3.049 6.067 12.069 11.492 23.978 14.419 1.634.402 2.907.834 2.829.96-.185.3-1.314.252-3.992-.168m-3.13-1.563c-6.58-2.227-11.272-4.592-15-7.561-3.426-2.73-5.848-6.373-6.19-9.312-.296-2.539 1.464-6.232 5.586-11.724 8.23-10.964 19.184-18.518 31.441-21.684 3.24-.836 5.894-.877 8.785-.133 10.054 2.585 17.73 6.996 25.274 14.525 3.881 3.874 6.048 6.469 8.522 10.202 3.24 4.893 4.025 7.346 3.229 10.106-1.754 6.085-8.492 11.29-19.844 15.327-3.554 1.265-3.38 1.486.403.513 9.813-2.525 17.988-7.316 21.33-12.5 2.205-3.423 2.466-5.906 1.158-11.047C92.477 34.018 77.58 15.145 60.277 6.144c-3.575-1.86-5.8-2.695-7.182-2.695-2.066 0-9.716 3.675-13.72 6.592-11.325 8.247-19.964 18.281-25.648 29.788C10.547 46.27 8.83 51.107 8 55.98c-.383 2.243-.382 2.594.006 4.11.646 2.522 1.84 4.371 4.51 6.991 4.285 4.202 10.68 7.408 19.26 9.657 3.223.845 3.759.61.852-.374M9.476 69.198c-.643-.655-1.109-1.19-1.036-1.19s.658.535 1.3 1.19c.643.655 1.11 1.19 1.037 1.19s-.658-.535-1.3-1.19m86.783 0c.494-.51.958-.926 1.03-.926s-.271.417-.765.926-.957.926-1.03.926.272-.417.765-.926M51.296 65.73c-1.126-.947-1.424-1.564-1.075-2.218.772-1.441 3.86-1.754 5.17-.523.976.917.844 1.702-.445 2.636-1.393 1.009-2.537 1.042-3.65.105m2.81-.011c1.233-.585 1.862-1.531 1.393-2.096-.515-.62-1.717-1.172-2.55-1.17-.983 0-2.461.924-2.461 1.536 0 .498.774 1.335 1.72 1.858.703.39.825.38 1.897-.128m-28.009-2.348c-1.638-.524-2.862-1.75-2.862-2.866 0-3.094 5.668-4.232 8.335-1.672 1.116 1.071 1.317 1.948.684 2.989-.953 1.567-3.834 2.292-6.157 1.549m4.42-.658c1.981-.959 2.218-2.56.564-3.82-2.818-2.15-8.31-.57-7.311 2.104.715 1.918 4.397 2.854 6.747 1.716m45.26.669c-2.517-.897-3.155-2.928-1.419-4.52 1.169-1.07 2.79-1.543 4.643-1.353 4.507.461 5.028 4.594.741 5.875-1.602.479-2.616.478-3.965-.002zm3.873-.413c2.023-.562 3.013-2.012 2.423-3.55-.197-.512-1.738-1.323-2.954-1.555-3.214-.613-6.606 2.271-4.797 4.08 1.201 1.201 3.264 1.598 5.328 1.025m19.894-43.645c0-2.546.04-3.588.088-2.315a74 74 0 0 1 0 4.63c-.048 1.274-.088.232-.088-2.315m-93.416.133c.001-1.165.048-1.608.104-.986s.055 1.575-.002 2.117-.103.033-.102-1.131M60.278 2.39c-.801-.423-1.363-.774-1.249-.781.281-.017 2.836 1.286 2.836 1.447 0 .177.036.192-1.588-.666" style="fill:#a11728"/><path d="M8.867 107.7c-2.607-.472-2.67-1.26-.179-2.237 6.773-2.657 13.071-10.282 19.09-23.11.701-1.495 1.437-2.781 1.634-2.857.197-.075 1.597.128 3.11.453 2.14.459 3.605.589 6.588.585 3.386-.004 4.148-.091 6.483-.745 3.362-.94 4.206-.99 4.312-.25.055.39-.415 1.024-1.588 2.145-7.099 6.782-11.721 10.217-19.002 14.119-4.82 2.584-5.726 3.292-8.609 6.731-3.513 4.192-4.975 5.099-8.53 5.289-1.12.06-2.61.005-3.31-.122m5.982-.651c1.744-.623 3.07-1.754 5.502-4.69 2.747-3.32 3.987-4.31 8.308-6.63 6.81-3.655 11.62-7.089 17.242-12.308 4.608-4.278 4.666-4.642.547-3.417-2.562.761-2.955.804-7.338.808-3.785.003-5.064-.097-7.011-.552-1.31-.306-2.453-.513-2.541-.46-.088.054-1.123 2.036-2.3 4.405-3.91 7.871-7.4 13.099-11.201 16.778-2.373 2.297-4.014 3.427-6.672 4.595-1.113.49-2.025.984-2.025 1.1 0 .715 5.726 1 7.489.37m77.31.677c-2.533-.69-3.956-1.79-7.119-5.507-2.786-3.275-3.384-3.742-8.226-6.412-6.722-3.708-11.293-6.941-16.158-11.43a358 358 0 0 0-3.373-3.08c-1.008-.896-1.316-2.062-.616-2.331.197-.076 1.775.242 3.506.707 2.815.756 3.551.848 6.983.871 2.88.02 4.398-.099 6.086-.476 3.779-.843 3.2-1.27 6.228 4.608 2.657 5.16 5.737 10.208 7.925 12.987 2.72 3.455 6.796 6.603 10.119 7.815 2.108.769 2.389 1.261 1.076 1.89-.855.41-5.325.659-6.43.358m6.346-.84c.369-.368.214-.49-1.568-1.233-6.543-2.73-11.666-8.695-17.645-20.54l-2.651-5.252-.84.122c-.462.068-1.97.33-3.353.583-3.626.664-8.747.462-12.24-.483-1.421-.384-2.76-.698-2.977-.698-1.028 0-.134 1.186 3.198 4.244 5.832 5.353 10.093 8.366 17.404 12.31 3.639 1.963 4.838 2.97 8.741 7.343 3.281 3.676 4.3 4.161 8.554 4.074 2.263-.046 3.066-.158 3.377-.47M47.067 89.272c-.614-.78-.67-1.365-.273-2.798.283-1.017 2.708-3.913 3.277-3.913.178 0 .6.293.937.652.58.618.594.716.265 1.918-.813 2.964-2.028 4.838-3.135 4.838-.288 0-.77-.314-1.07-.697m2.061-.322c.8-.856 1.976-3.93 1.844-4.819-.048-.325-.293-.719-.544-.876-.373-.234-.648-.098-1.512.746-1.288 1.257-1.868 2.418-1.868 3.738 0 .95.582 1.966 1.125 1.966.138 0 .567-.34.955-.755m7.572.327c-.61-.66-2.244-4.448-2.244-5.206 0-.47 1.114-1.51 1.617-1.51.555 0 2.193 1.778 2.853 3.098 1.399 2.796-.351 5.64-2.226 3.618m1.78-.035c.222-.255.485-.807.585-1.226.234-.982-.784-3.126-2.078-4.38-.925-.896-.936-.9-1.491-.397-.652.59-.6 1.29.266 3.59.539 1.431 1.584 2.876 2.08 2.876.13 0 .417-.209.639-.463m-6.355-7.011c-.76-.367-1.04-1.405-.756-2.821.282-1.407 2.633-1.632 3.336-.319.447.836.33 2.098-.249 2.676-.29.291-.638.53-.772.53-.133 0-.401.05-.595.114-.194.063-.628-.018-.964-.18m1.79-.457c.935-.5.878-2.33-.094-2.98-.976-.651-2.275.228-2.275 1.54 0 1.42 1.126 2.105 2.368 1.44m11.521-3.12c-.582-.053-1.165-.203-1.297-.332-.33-.324.548-.626 3.811-1.307 11.59-2.422 21.502-8.118 24.66-14.172 1.822-3.49 1.608-5.576-1.015-9.927-4.45-7.382-11.827-14.988-19.09-19.683-2.587-1.671-8.347-4.41-11.395-5.418-1.361-.45-3.676-1.063-5.144-1.362-2.333-.475-2.905-.505-4.537-.237-7.827 1.284-17.05 5.737-24.019 11.595-6.255 5.26-13.252 14.117-14.81 18.752-.695 2.064-.522 3.574.691 6.029 3.098 6.269 13.736 12.257 26.084 14.683 3.385.665 3.466 1.317.163 1.317-6.793 0-17.28-3.488-23.998-7.981-4.406-2.947-7.852-7.45-8.409-10.988-.554-3.523 1.491-10.917 5.122-18.514 6.363-13.312 15.986-24.45 28.268-32.717C42.845 6.826 49 3.74 51.127 3.07c2.288-.72 3.89-.352 8.553 1.962 9.933 4.928 19.119 12.984 26.705 23.42 6.601 9.08 12.521 23.125 12.521 29.706 0 5.23-4.368 10.541-12.038 14.636-6.611 3.528-16.73 6.294-21.432 5.859m-25.685-.557c.078-.127-1.195-.56-2.829-.96-11.91-2.928-20.93-8.352-23.978-14.42-1.068-2.125-1.125-2.354-1.037-4.15.08-1.655.257-2.222 1.368-4.387 2.468-4.81 8.57-12.16 13.733-16.544 6.312-5.36 14.287-9.445 22.157-11.351 3.308-.801 5.363-.732 9.216.31 6.91 1.871 13.842 5.47 19.772 10.266 6.108 4.94 14.562 15.565 15.73 19.769 2.136 7.689-8.423 16.531-24.478 20.498-3.69.912-4.19 1.327-1.323 1.096 4.305-.346 10.24-1.976 15.482-4.251 8.906-3.866 14.314-9.298 14.967-15.032.3-2.627-1.396-9.08-3.977-15.142-4.54-10.66-11.356-20.246-19.788-27.83-5.426-4.88-9.515-7.719-15.328-10.64-5.885-2.96-6.948-2.917-13.756.549-9.756 4.967-20.272 14.669-27.337 25.221C11.92 40.692 6.837 53.856 7.47 59.254c.412 3.509 3.846 8.097 8.255 11.031 5.435 3.616 13.178 6.57 20.033 7.643 2.678.419 3.807.466 3.992.168m11.002-12.368c-1.235-1.116-1.39-2.09-.464-2.933 1.492-1.36 3.85-1.367 5.389-.016 1.036.91 1.111 1.442.342 2.42-.756.962-1.862 1.486-3.137 1.486-.859 0-1.28-.19-2.13-.957m4.193-.103c1.289-.934 1.421-1.72.445-2.636-1.31-1.231-4.398-.918-5.17.524-.35.653-.05 1.27 1.075 2.217 1.113.937 2.257.904 3.65-.105M25.79 63.669c-1.973-.735-3.217-2.475-2.803-3.92.593-2.067 3.867-3.161 6.921-2.313 1.199.333 2.751 1.742 2.997 2.72.261 1.042-.339 2.241-1.51 3.016-1.265.837-4.033 1.083-5.605.497m5.017-.589c1.176-.557 1.992-1.807 1.787-2.735-.209-.943-1.71-2.3-2.917-2.635-4.36-1.211-8.232 1.852-5.63 4.454 1.548 1.548 4.567 1.957 6.76.916m44.42.461c-1.405-.644-2.001-1.361-2.168-2.603-.273-2.035 2.085-3.762 5.152-3.772.914-.003 2.051.156 2.526.355 1.313.548 2.294 1.865 2.294 3.078 0 2.553-4.752 4.344-7.805 2.942m4.515-.157c4.287-1.281 3.766-5.413-.74-5.875-1.854-.19-3.475.283-4.644 1.354-1.736 1.59-1.098 3.622 1.42 4.519 1.348.48 2.362.481 3.964.002z" style="fill:#5e0e18"/><path d="M41.999 114.212c-.667-.18-1.671-.597-2.23-.928l-1.018-.6-1.472.745c-1.29.652-1.831.757-4.368.844-4.415.15-6.479-.433-8.377-2.37l-1.013-1.033-4.045-.003c-7.207-.005-11.998-.623-15.334-1.979-2.286-.928-3.132-1.61-3.132-2.525 0-.904.317-1.108 2.652-1.71 7.422-1.91 12.473-6.36 17.703-15.598 2.072-3.658 4.774-9.22 4.86-10.002.042-.388-.541-.728-2.852-1.662-10.028-4.054-16.088-9.097-18.167-15.118-1.54-4.458-.132-11.577 4.183-21.159l1.446-3.213-.936-1.859c-1.062-2.108-2.568-6.885-3.102-9.839-.548-3.028-.48-10.956.116-13.727.675-3.132 1.336-4.432 2.441-4.797 2.331-.769 10.627 1.437 17.577 4.675 2.445 1.139 2.519 1.156 3.096.695.325-.26 2.031-1.603 3.79-2.985C40.97 4.446 49.413.009 52.955.009c3.735 0 12.947 4.866 20.092 10.613 3.735 3.005 3.627 2.947 4.57 2.456 2.014-1.05 6.883-3.035 9.516-3.88 3.563-1.143 5.526-1.556 7.652-1.608 2.353-.058 2.87.364 3.758 3.067.66 2.008.727 2.613.836 7.476.165 7.342-.59 11.738-2.966 17.288-.52 1.213-.945 2.394-.945 2.624s.669 1.975 1.486 3.88c2.604 6.062 4.6 13.113 4.6 16.25 0 1.565-.71 3.959-1.88 6.35-.84 1.714-1.561 2.69-3.238 4.378-3.265 3.286-6.333 5.197-13.007 8.1-2.672 1.163-3.458 1.62-3.52 2.045-.155 1.045 6.245 13.086 7.882 14.828.699.744.973.586 1.676-.966.507-1.12.548-1.637.49-6.149-.057-4.4-.006-5.079.473-6.35 1.027-2.724 3.482-4.894 6.423-5.677 1.89-.503 3.022-.47 4.787.137 3.693 1.27 6.223 4.164 7.163 8.192.481 2.063.545 2.142 1.73 2.142.588 0 1.151.171 1.35.41.444.535.04 1.384-2.03 4.264-2.982 4.149-3.983 4.935-4.915 3.86-.835-.966-4.489-8.033-4.345-8.407.095-.249.514-.393 1.15-.395 1.561-.006 1.819-.282 1.442-1.538-.346-1.156-1.768-2.583-2.842-2.852-.889-.223-2.398.037-3.178.548-1.33.871-1.522 1.74-1.464 6.627.062 5.235-.285 6.837-2.081 9.616-.585.904-1.063 1.735-1.063 1.847 0 .36 1.675 1.811 3.175 2.754 1.753 1.1 4.248 2.116 6.724 2.737 1.741.437 2.801 1.088 2.801 1.722 0 .63-1.715 1.837-3.694 2.6-3.234 1.247-6.021 1.634-12.974 1.8l-6.218.15-.794.849c-1.728 1.848-3.704 2.505-7.559 2.51-2.654.002-4.96-.492-5.538-1.189-.474-.571-.914-.5-2.872.464-1.703.838-1.833.86-5.192.852-3.037-.007-3.59-.08-4.668-.609-.673-.33-1.498-.892-1.832-1.249-.335-.356-.718-.648-.852-.648-.133 0-.732.42-1.331.932-.6.513-1.681 1.108-2.405 1.323-1.59.472-5.624.488-7.328.028zm7.48-.477c.572-.172 1.557-.767 2.19-1.324 1.345-1.184 1.777-1.249 2.364-.354 1.517 2.316 8.197 2.851 11.88.952l1.623-.837 1.688.857c1.584.804 1.864.858 4.507.868 3.87.015 5.371-.406 7.044-1.974l1.33-1.247 5.795-.186c3.187-.103 6.877-.35 8.202-.55 5.328-.805 9.644-2.92 8.432-4.132-.134-.133-1.366-.542-2.737-.907-3.029-.806-6.411-2.433-8.042-3.869-1.85-1.627-1.87-1.745-.624-3.661 1.973-3.037 2.202-3.994 2.214-9.255.014-5.89-.02-5.642.915-6.706 1.645-1.873 4.447-1.834 6.183.087.999 1.106 1.327 1.926 1.182 2.954-.077.54-.255.633-1.345.703-.904.058-1.257.192-1.257.476 0 .477 3.832 7.478 4.401 8.042.356.354.536.25 1.638-.943 1.706-1.85 4.544-5.9 4.544-6.487 0-.354-.265-.526-.992-.642-1.554-.248-1.726-.441-2.234-2.506-.866-3.523-2.65-5.83-5.658-7.317-1.843-.911-2.045-.953-4.003-.833-3.441.21-5.88 1.755-7.503 4.751l-.907 1.674v5.424c-.002 5.15-.033 5.487-.62 6.68-.961 1.951-1.565 1.783-3.328-.925-2.972-4.567-7.13-12.766-6.983-13.768.062-.42.646-.782 2.463-1.523 12.603-5.147 18.703-11.053 19.114-18.51.21-3.807-1.686-10.795-4.79-17.662-.675-1.493-1.227-2.843-1.227-3s.404-1.207.9-2.332c2.282-5.192 3.338-10.399 3.324-16.389-.014-5.617-1.069-10.454-2.44-11.189-.768-.41-4.317-.109-6.812.579-3.093.852-7.017 2.31-10.027 3.722-1.513.71-2.949 1.292-3.19 1.292s-1.058-.527-1.812-1.171C69.306 7.839 61.257 2.822 56.545 1.17 53.226.007 51.11.281 46.519 2.472c-4.51 2.15-9.714 5.555-14.504 9.49-2.09 1.717-3.042 2.127-3.633 1.569-.139-.131-1.621-.83-3.294-1.554C19.353 9.497 13.138 7.82 10.352 8c-1.082.07-1.335.2-1.84.952-.733 1.09-1.303 3.574-1.682 7.326-.638 6.309.854 14.605 3.603 20.038.347.686.632 1.41.632 1.608s-.7 1.958-1.555 3.911C5.65 50.647 4.189 57.58 5.369 61.467c1.908 6.29 7.84 11.373 18.131 15.536 2.667 1.079 3.053 1.314 3.123 1.9.113.945-4.65 10.266-7.235 14.16-2.631 3.964-6.288 7.702-9.2 9.404-1.882 1.1-4.54 2.107-7.538 2.855-1.916.479-1.823 1.498.235 2.56 3.207 1.653 7.282 2.336 15.588 2.614l5.424.18 1.108 1.144c1.508 1.554 3.217 2.042 7.25 2.071 2.952.021 3.126-.01 4.712-.827l1.647-.85 1.543.809c.848.445 2.18.909 2.96 1.031 1.714.27 4.936.108 6.362-.32m-4.929-2.159c-.319-.233-.526-.815-.613-1.72-.076-.794-.261-1.367-.442-1.367-.526 0-.945.6-.945 1.354 0 1.69-.635 2.003-1.64.808-.511-.606-.696-1.295-.98-3.638-.385-3.2-1.02-6.386-2.014-10.123-.362-1.36-.658-2.629-.658-2.822 0-.3 6.864-5.687 7.247-5.687.075 0 .373.532.66 1.183.558 1.26 1.83 2.253 2.888 2.255 1.53.002 2.936-1.364 4.163-4.045.38-.83.744-1.51.808-1.51s.416.678.783 1.508c1.172 2.65 2.604 4.05 4.142 4.047 1.038-.002 2.21-.93 2.826-2.241.334-.71.722-1.192.904-1.121.175.068 1.576 1.06 3.113 2.206a404 404 0 0 0 3.537 2.615l.742.531-1.209 4.893c-.664 2.69-1.341 5.845-1.504 7.009-.57 4.078-.792 4.884-1.46 5.322-.838.549-1.086.34-1.302-1.101-.292-1.95-1.453-1.888-1.463.078-.007 1.501-1.367 2.34-2.667 1.645-.401-.215-.512-.56-.512-1.596 0-.968-.113-1.366-.423-1.485-.521-.2-.821.254-1.045 1.582-.196 1.16-.755 1.515-1.388.882-.598-.598-.529-2.68.177-5.327.64-2.395 1.617-8.029 1.62-9.327 0-.672-.11-.86-.507-.86-.644 0-1.438 1.278-2.522 4.058-.775 1.988-.905 2.166-1.64 2.24-.975.097-1.122-.088-2.059-2.593-1.22-3.264-2.493-4.803-2.962-3.581-.195.51 1.126 8.516 1.775 10.753.63 2.168.661 4.013.08 4.594-.635.635-.98.38-1.446-1.07-.31-.963-.551-1.304-.926-1.304-.421 0-.522.224-.59 1.316-.046.724-.21 1.468-.364 1.654-.365.44-1.572.432-2.184-.015m-13.682-.09c-.491-.13-.958-1.147-1.073-2.336-.101-1.04-1.096-1.148-1.21-.132-.164 1.469-.34 1.852-.847 1.852-.679 0-1.063-.768-1.063-2.125 0-.892.157-1.249.823-1.87 1.194-1.117 3.23-1.637 5.52-1.411 1.585.156 1.86.122 1.86-.229 0-.654-1.255-1.466-2.57-1.663-.683-.103-2.018-.037-3.066.15-1.823.326-1.865.32-2.341-.295-.267-.345-.605-1.043-.752-1.553-.217-.755-.18-1.04.196-1.543.367-.49 7.158-4.542 7.612-4.542.328 0 1.204 2.301 1.814 4.762 1.35 5.447 1.61 9.404.677 10.335-.302.302-.801.51-1.119.463-.465-.066-.616-.333-.793-1.405-.26-1.564-.538-1.933-1.103-1.464-.253.21-.408.775-.408 1.487 0 1.46-.652 1.919-2.157 1.52m42.969-.097c-.473-.188-.595-.446-.595-1.253 0-.56-.179-1.248-.397-1.53-.393-.509-.401-.509-.794 0-.218.282-.397.825-.397 1.206 0 .38-.159.91-.353 1.175-.316.433-.432.445-1.115.117-1.109-.533-1.331-1.615-.964-4.691.356-2.98 1.43-7.565 2.159-9.21.614-1.389 1.059-1.45 2.835-.387.701.42 2.052 1.184 3.001 1.7.95.515 1.95 1.184 2.223 1.485.647.715.596 1.917-.132 3.094-.493.799-.689.92-1.274.784-1.43-.332-3.716-.48-4.663-.302-.955.18-2.246 1.17-2.246 1.722 0 .18.791.218 2.317.11 2.043-.146 2.482-.094 3.714.436.768.33 1.63.898 1.916 1.261.715.909.698 2.68-.033 3.464-.772.828-1.144.591-1.31-.834-.08-.674-.223-1.304-.32-1.4-.409-.41-.927.185-1.066 1.225-.217 1.614-1.214 2.341-2.506 1.828M41.879 78.343c.084-.137-.058-.38-.316-.542-.394-.247-.364-.266.193-.116.364.098.703.215.754.26.162.142-.244.646-.52.646-.146 0-.196-.112-.111-.248m5.653-2.667c-10.975-.802-19.798-4.26-26.612-10.428-.764-.692-1.389-1.431-1.389-1.643s.317-.658.705-.991l.705-.607-1.183-.814c-1.443-.992-3.204-2.897-3.073-3.324.052-.172.58-.55 1.17-.842 1.633-.802 1.824-1.046 2.338-2.976 1.972-7.41 10.219-15.548 19.392-19.134 4.727-1.849 6.772-2.193 13.151-2.213 5.875-.019 7.51.173 11.456 1.34 7.136 2.114 13.807 6.933 18.28 13.206 1.905 2.674 2.749 4.347 3.479 6.899.575 2.012 1.02 2.608 2.248 3.014 1.878.62 1.287 1.838-2.142 4.417l-.777.584.627.5c.89.708.6 1.32-1.5 3.17-6.103 5.375-13.264 8.43-22.41 9.561-3.129.387-10.934.538-14.465.28m7.323-7.897c1.447-.657 2.624-2.077 3.332-4.019.464-1.272.813-1.77 1.606-2.296 1.705-1.128 2.674-3.296 1.65-3.69q-.424-.16-1.39.896c-1.116 1.221-1.84 1.519-3.112 1.28-1.074-.201-2.75-1.583-2.75-2.267 0-.264.419-.739.93-1.054 1.542-.953 1.93-2.395.895-3.33-.783-.71-4.807-.733-5.87-.036-1.13.74-.96 1.657.577 3.1 1.232 1.156 1.276 1.246.937 1.894-.541 1.032-1.67 1.643-3.077 1.663-1.129.016-1.36-.093-2.437-1.15-1.005-.986-1.253-1.114-1.597-.829-.81.672.259 2.607 2.017 3.652.469.278.895.93 1.257 1.922.754 2.07 1.866 3.51 3.231 4.186 1.4.693 2.402.714 3.801.078m-23.46-4.607c1.91-1.263 2.07-3.037.413-4.599-2.528-2.385-8.01-1.654-8.82 1.176-.415 1.445.83 3.185 2.802 3.92 1.572.586 4.34.34 5.605-.497m48.499.56c.563-.169 1.5-.714 2.081-1.211.892-.764 1.056-1.063 1.056-1.922 0-1.213-.981-2.53-2.294-3.078-1.243-.52-3.969-.45-5.257.136-.588.267-1.405.884-1.814 1.37-.619.736-.721 1.058-.607 1.91.076.565.356 1.272.623 1.572 1.2 1.35 3.97 1.895 6.212 1.223m-40.435-5.774c1.569-.794 3.224-2.549 3.948-4.187.816-1.845.754-4.981-.14-6.977-.85-1.902-2.501-3.703-4.102-4.475-1.795-.865-4.76-.873-6.405-.018-4.289 2.23-6.1 7.317-4.123 11.584.882 1.904 2.07 3.132 3.942 4.075 1.479.746 1.828.817 3.621.734 1.444-.066 2.331-.266 3.259-.736m-2.08-8.05c-1.1-.478-1.708-1.5-1.708-2.867 0-1.306.493-2.148 1.59-2.715 1.405-.726 3.184-.297 4.082.985.53.756.53 2.39-.001 3.416-.408.79-1.756 1.564-2.686 1.543-.26-.006-.834-.168-1.278-.361m3.005-.817c.954-.803 1.227-1.748.841-2.916-.718-2.176-3.84-2.43-4.89-.398-1.387 2.683 1.749 5.25 4.05 3.314m32.855 8.864c3.1-1.565 4.559-3.788 4.722-7.194.134-2.801-.402-4.307-2.243-6.296-1.915-2.068-3.325-2.738-5.758-2.735-2.363.003-3.826.622-5.516 2.336-2.287 2.32-3.17 6.247-2.062 9.178 1.75 4.633 6.73 6.794 10.857 4.71m-3.59-7.93c-.304-.123-.87-.601-1.258-1.063-1.256-1.492-.74-3.784 1.043-4.63 1.065-.506 1.777-.507 2.746-.006 1.112.574 1.59 1.412 1.59 2.78s-.478 2.204-1.59 2.779q-1.261.652-2.532.139zm2.702-.742c1.236-1.002 1.465-2.328.635-3.689-1.368-2.244-4.844-1.132-4.844 1.55 0 .92.148 1.249.834 1.862.98.876 2.483.999 3.375.277M12.154 34.046c-1.282-1.545-2.944-9.74-2.93-14.457.008-3.243.772-8.15 1.39-8.94.316-.403 1.658-.26 4.816.515 4.062.995 11.113 3.917 11.113 4.606 0 .155-.862 1.226-1.916 2.38l-1.915 2.1-1.656-1.699c-2.516-2.579-6.173-4.663-7.837-4.466-.99.118-1.18 1.276-1.012 6.165.143 4.147.506 6.312 1.675 9.986.396 1.245.392 1.266-.435 2.712-.459.802-.87 1.458-.914 1.458s-.215-.162-.38-.36m80.571-.887c-.82-1.36-.824-1.795-.033-4.574.94-3.303 1.264-5.75 1.289-9.717.03-4.914-.068-5.118-2.167-4.503-2.134.626-4.766 2.256-6.594 4.084-.935.935-1.796 1.663-1.913 1.618-.287-.11-3.98-4.084-3.98-4.283 0-.272 3.463-1.909 6.218-2.94 3.674-1.375 8.056-2.42 9.559-2.279 1.412.133 1.986 10.864.88 16.47-.296 1.507-.67 3.157-.828 3.666-.597 1.91-1.321 3.705-1.496 3.705-.1 0-.52-.561-.935-1.247" style="fill:#222332"/><path d="M43.117 114.054c-.78-.122-2.112-.586-2.96-1.031l-1.543-.809-1.647.85c-1.586.818-1.76.848-4.713.827-4.032-.029-5.741-.517-7.249-2.071l-1.108-1.143-5.424-.181c-8.306-.278-12.381-.961-15.588-2.614-2.058-1.062-2.151-2.081-.235-2.56 2.997-.748 5.656-1.755 7.538-2.855 2.912-1.702 6.569-5.44 9.2-9.404 2.585-3.894 7.348-13.215 7.235-14.16-.07-.587-.456-.821-3.123-1.9C13.208 72.84 7.277 67.758 5.369 61.467c-1.18-3.888.282-10.82 4.14-19.633.856-1.953 1.556-3.713 1.556-3.911s-.285-.922-.632-1.608c-2.749-5.433-4.24-13.73-3.603-20.038.38-3.752.95-6.235 1.682-7.326.505-.752.758-.883 1.84-.952 2.786-.18 9 1.498 14.736 3.978 1.673.724 3.155 1.423 3.294 1.554.591.558 1.542.148 3.633-1.57 4.79-3.934 9.993-7.338 14.504-9.49 4.592-2.19 6.707-2.464 10.026-1.3 4.712 1.651 12.761 6.667 18.336 11.426.754.644 1.57 1.171 1.812 1.171.241 0 1.677-.581 3.19-1.292 3.01-1.413 6.934-2.87 10.027-3.722 2.495-.688 6.044-.99 6.812-.579 1.371.735 2.426 5.572 2.44 11.19.014 5.99-1.042 11.196-3.325 16.388-.495 1.125-.9 2.174-.9 2.332s.553 1.507 1.227 3c3.105 6.867 5 13.855 4.79 17.662-.41 7.457-6.51 13.363-19.113 18.51-1.817.741-2.4 1.103-2.463 1.523-.147 1.002 4.011 9.2 6.983 13.768 1.763 2.708 2.367 2.876 3.327.926.588-1.194.62-1.53.62-6.68l.001-5.425.907-1.674c1.623-2.996 4.062-4.54 7.503-4.751 1.958-.12 2.16-.078 4.003.833 3.008 1.487 4.792 3.794 5.658 7.317.508 2.064.68 2.258 2.234 2.506.727.116.992.288.992.642 0 .587-2.838 4.638-4.544 6.487-1.102 1.193-1.282 1.297-1.638.943-.57-.564-4.401-7.565-4.401-8.042 0-.284.353-.418 1.257-.476 1.09-.07 1.268-.163 1.345-.703.145-1.028-.183-1.848-1.182-2.954-1.736-1.92-4.538-1.96-6.183-.087-.935 1.064-.9.815-.915 6.706-.012 5.26-.241 6.218-2.214 9.255-1.245 1.916-1.225 2.034.624 3.661 1.63 1.436 5.013 3.063 8.042 3.87 1.371.364 2.603.772 2.737.906 1.211 1.212-3.104 3.327-8.432 4.131-1.325.2-5.015.448-8.202.55l-5.795.187-1.33 1.247c-1.673 1.568-3.174 1.99-7.044 1.974-2.643-.01-2.923-.064-4.507-.868l-1.688-.857-1.624.837c-3.682 1.9-10.362 1.364-11.88-.952-.586-.895-1.018-.83-2.364.354-.632.557-1.617 1.152-2.19 1.324-1.425.427-4.647.588-6.361.32m3.617-2.463c.154-.186.317-.93.363-1.654.07-1.092.17-1.316.59-1.316.376 0 .618.34.927 1.304.465 1.45.81 1.705 1.446 1.07.581-.581.55-2.426-.08-4.594-.649-2.237-1.97-10.243-1.775-10.753.469-1.222 1.742.317 2.962 3.58.937 2.506 1.084 2.69 2.059 2.594.735-.074.865-.252 1.64-2.24 1.084-2.78 1.878-4.058 2.522-4.058.397 0 .508.188.506.86-.002 1.298-.98 6.932-1.619 9.327-.706 2.646-.775 4.729-.177 5.327.633.633 1.192.278 1.388-.882.224-1.328.524-1.781 1.045-1.582.31.12.423.517.423 1.485 0 1.036.11 1.38.512 1.596 1.3.695 2.66-.144 2.667-1.645.01-1.967 1.17-2.029 1.463-.078.216 1.44.464 1.65 1.302 1.1.668-.437.89-1.243 1.46-5.321.163-1.164.84-4.318 1.504-7.01l1.209-4.892-.743-.531c-.408-.293-2-1.47-3.536-2.615s-2.938-2.138-3.113-2.206c-.182-.07-.57.41-.904 1.12-.616 1.311-1.788 2.24-2.826 2.242-1.538.002-2.97-1.397-4.142-4.047-.367-.83-.72-1.508-.783-1.508s-.428.68-.808 1.51c-1.227 2.68-2.634 4.048-4.163 4.045-1.058-.002-2.33-.995-2.888-2.255-.287-.65-.585-1.183-.66-1.183-.383 0-7.247 5.387-7.247 5.687 0 .193.296 1.463.658 2.822.994 3.737 1.629 6.923 2.015 10.123.283 2.343.468 3.032.978 3.638 1.006 1.195 1.641.882 1.641-.808 0-.754.42-1.354.945-1.354.18 0 .366.573.442 1.367.087.905.294 1.487.613 1.72.612.447 1.818.456 2.184.015m-14.22-.201c.385-.206.511-.558.511-1.423 0-.712.155-1.277.408-1.487.565-.47.843-.1 1.103 1.464.177 1.072.328 1.339.793 1.405.318.046.817-.16 1.12-.463.931-.931.672-4.888-.678-10.335-.61-2.46-1.486-4.762-1.814-4.762-.454 0-7.245 4.052-7.612 4.542-.377.504-.413.788-.196 1.543.147.51.485 1.208.752 1.553.476.616.518.62 2.341.295 1.048-.187 2.383-.252 3.065-.15 1.316.197 2.57 1.009 2.57 1.663 0 .351-.274.385-1.859.229-2.29-.226-4.326.295-5.52 1.41-.666.622-.823.979-.823 1.87 0 1.358.384 2.126 1.063 2.126.507 0 .683-.383.847-1.852.114-1.016 1.109-.908 1.21.132.204 2.11 1.29 3.004 2.718 2.24m43.328-.38c.193-.182.418-.835.5-1.45.14-1.039.658-1.634 1.067-1.225.097.097.24.727.32 1.4.166 1.426.538 1.663 1.31.835.73-.785.748-2.555.033-3.464-.286-.363-1.148-.93-1.916-1.261-1.232-.53-1.67-.582-3.714-.437-1.526.109-2.317.071-2.317-.109 0-.553 1.291-1.543 2.246-1.722.947-.177 3.232-.03 4.663.302.585.135.78.015 1.274-.784.728-1.177.78-2.379.132-3.094-.273-.301-1.273-.97-2.223-1.486-.95-.515-2.3-1.28-3-1.7-1.777-1.062-2.222-1.001-2.836.388-.728 1.645-1.803 6.23-2.159 9.21-.367 3.076-.145 4.158.964 4.691.683.328.799.316 1.115-.117.194-.265.353-.794.353-1.175s.179-.924.397-1.206c.393-.509.4-.509.794 0 .218.282.397.97.397 1.53 0 .807.122 1.065.595 1.253a1.94 1.94 0 0 0 2.005-.379m-60.624-3.715c1.815-.754 2.972-1.758 5.488-4.76 2.883-3.44 3.788-4.148 8.61-6.732 7.28-3.902 11.902-7.337 19.001-14.12 1.173-1.12 1.643-1.755 1.588-2.143-.106-.74-.95-.691-4.312.25-2.335.653-3.097.74-6.483.744-2.983.004-4.448-.126-6.588-.585-1.513-.325-2.913-.528-3.11-.453s-.933 1.362-1.635 2.858c-6.023 12.837-12.315 20.451-19.102 23.114-1.03.404-1.921.816-1.983.916-.236.381.935 1.093 2.165 1.316 1.756.318 5.142.103 6.36-.405m83.336.128c.462-.162.906-.468.987-.68.156-.407.114-.431-2.653-1.521-2.996-1.18-6.949-4.327-9.493-7.56-2.188-2.778-5.268-7.826-7.925-12.986-3.027-5.879-2.45-5.451-6.228-4.608-1.688.377-3.206.496-6.086.476-3.432-.024-4.168-.115-6.983-.871-1.731-.465-3.309-.783-3.506-.707-.7.269-.392 1.435.616 2.33.535.477 2.053 1.863 3.373 3.08 4.865 4.49 9.436 7.723 16.158 11.43 4.842 2.671 5.44 3.138 8.226 6.413 3.163 3.717 4.586 4.817 7.12 5.507 1.026.28 5.31.076 6.394-.303M49.316 89.31c.718-.717 1.416-2.21 1.957-4.181.33-1.202.316-1.3-.265-1.918-.337-.359-.759-.652-.937-.652-.57 0-2.994 2.896-3.277 3.913-.398 1.433-.34 2.018.273 2.798.687.873 1.404.886 2.25.04m9.29.45c.41-.261.877-1.504.877-2.334 0-1.416-2.418-4.867-3.41-4.867-.503 0-1.617 1.04-1.617 1.51 0 .758 1.633 4.547 2.244 5.206.64.69 1.313.862 1.907.484m-4.922-7.466c.536 0 1.301-1.1 1.301-1.87 0-1.7-1.138-2.585-2.648-2.058-.726.253-1.12.936-1.12 1.944 0 1.29.98 2.389 1.872 2.099.194-.063.462-.115.595-.115m17.573-4.128c6.308-1.01 14.747-4.37 19.712-7.848 3.558-2.493 6.663-6.318 7.548-9.3.774-2.605.368-5.956-1.376-11.364-2.291-7.107-6.409-15.223-10.756-21.203C78.8 18.017 69.613 9.962 59.68 5.032c-4.664-2.313-6.265-2.68-8.553-1.961-2.128.669-8.282 3.755-10.606 5.32-12.282 8.267-21.905 19.405-28.268 32.717-3.63 7.597-5.676 14.991-5.122 18.514.557 3.538 4.003 8.041 8.409 10.988 6.967 4.66 17.767 8.16 24.475 7.93 2.538-.087 3.404-.575 1.56-.879-13.422-2.214-24.971-8.367-28.284-15.07-1.213-2.455-1.386-3.965-.692-6.03 1.56-4.634 8.556-13.491 14.811-18.751 6.968-5.858 16.192-10.311 24.019-11.595 1.632-.268 2.204-.238 4.537.237 3.755.765 7.06 1.913 11.114 3.857 6.138 2.944 10.791 6.338 15.75 11.485 5.215 5.415 9.739 11.787 10.69 15.058 2.19 7.535-9.386 16.702-25.438 20.143-3.871.83-4.142.909-4.127 1.2.033.651 3.133.64 7.302-.028m-9.26-2.772c9.146-1.131 16.307-4.186 22.41-9.562 2.1-1.848 2.39-2.461 1.5-3.17l-.627-.499.777-.584c3.43-2.579 4.02-3.798 2.142-4.417-1.228-.406-1.673-1.002-2.248-3.014-.73-2.552-1.574-4.225-3.48-6.899C78 40.977 71.328 36.158 64.191 34.045c-3.944-1.168-5.58-1.36-11.455-1.341-6.379.02-8.424.364-13.15 2.213-9.174 3.586-17.421 11.724-19.393 19.134-.514 1.93-.705 2.174-2.337 2.976-.592.292-1.119.67-1.171.842-.131.427 1.63 2.332 3.073 3.324l1.183.814-.705.607c-.388.333-.705.78-.705.99 0 1.075 5.921 5.49 10.125 7.55 5.123 2.511 11.122 4.029 17.876 4.522 3.531.257 11.336.106 14.465-.28m-10.943-7.694c-1.365-.675-2.477-2.116-3.231-4.186-.362-.991-.788-1.644-1.257-1.922-1.758-1.045-2.826-2.98-2.017-3.652.344-.285.592-.157 1.597.83 1.077 1.056 1.308 1.165 2.437 1.149 1.407-.02 2.536-.63 3.077-1.663.34-.648.295-.738-.937-1.894-1.537-1.443-1.707-2.36-.578-3.1 1.064-.697 5.088-.673 5.871.035 1.034.936.647 2.378-.895 3.33-.511.316-.93.791-.93 1.055 0 .684 1.676 2.066 2.75 2.267 1.273.239 1.996-.059 3.112-1.28q.966-1.056 1.39-.895c1.024.393.055 2.56-1.65 3.69-.793.524-1.142 1.023-1.606 2.295-.708 1.942-1.885 3.362-3.332 4.019-1.4.636-2.4.615-3.8-.078m3.657-1.408c.915-.473 1.862-1.623 1.862-2.262 0-.689-1.646-2.011-2.764-2.22-1.884-.354-4.115.862-4.115 2.243 0 1.132 1.817 2.63 3.189 2.63.589 0 1.411-.175 1.828-.39M32.579 57.96c-6.392-3.222-6.286-12.297.181-15.66 1.645-.854 4.61-.846 6.405.02 1.601.771 3.252 2.572 4.103 4.474.893 1.996.955 5.132.14 6.977-1.315 2.971-3.954 4.774-7.208 4.923-1.793.083-2.142.012-3.621-.734m7.448-8.055c1.069-.447 1.73-1.59 1.73-2.992 0-1.185-.523-2.035-1.591-2.587-1.405-.726-3.184-.297-4.082.985-.547.78-.526 2.699.037 3.559.46.703 1.69 1.382 2.535 1.4.26.006.876-.159 1.371-.365m26.677 8.156c-1.768-.856-3.595-2.891-4.322-4.817-1.107-2.931-.225-6.858 2.062-9.178 1.69-1.714 3.153-2.333 5.516-2.336 2.433-.003 3.843.667 5.758 2.735 1.84 1.989 2.377 3.495 2.243 6.296-.163 3.406-1.622 5.63-4.722 7.194-2.097 1.058-4.487 1.097-6.535.106m5.476-8.176c1.112-.574 1.59-1.412 1.59-2.78s-.478-2.204-1.59-2.779c-2.909-1.504-5.888 2.141-3.789 4.636 1.123 1.334 2.395 1.644 3.79.923M13.447 32.948c.827-1.446.83-1.467.435-2.712-1.169-3.674-1.532-5.84-1.675-9.986-.169-4.889.021-6.047 1.012-6.165 1.664-.197 5.321 1.887 7.837 4.466l1.656 1.699 1.915-2.1c1.054-1.154 1.916-2.225 1.916-2.38 0-.381-3.404-2.046-6.483-3.17-2.649-.967-5.928-1.842-7.962-2.123-1.724-.239-1.83-.054-2.491 4.35-.812 5.405-.172 11.892 1.707 17.3.474 1.366.963 2.279 1.219 2.279.044 0 .455-.656.914-1.458m80.907.069c.834-2.26 1.062-3.098 1.63-5.982 1.106-5.606.532-16.337-.88-16.47-1.503-.141-5.885.904-9.56 2.279-2.754 1.031-6.217 2.668-6.217 2.94 0 .199 3.693 4.174 3.98 4.283.117.045.978-.683 1.913-1.618 1.828-1.828 4.46-3.458 6.594-4.083 2.1-.616 2.198-.412 2.167 4.502-.025 3.967-.35 6.414-1.289 9.717-.79 2.779-.787 3.215.033 4.574.415.686.835 1.247.935 1.247s.412-.625.694-1.39" style="fill:#040203"/></svg>