<?xml version="1.0" encoding="UTF-8" standalone="no"?>
<!DOCTYPE svg PUBLIC "-//W3C//DTD SVG 1.1//EN" "http://www.w3.org/Graphics/SVG/1.1/DTD/svg11.dtd">
<svg width="100%" height="100%" viewBox="0 0 2000 2000" version="1.1" xmlns="http://www.w3.org/2000/svg" xmlns:xlink="http://www.w3.org/1999/xlink" xml:space="preserve" xmlns:serif="http://www.serif.com/" style="fill-rule:evenodd;clip-rule:evenodd;stroke-linejoin:round;stroke-miterlimit:2;">
    <g transform="matrix(16.8563,0,0,16.8563,47.156243,34.507419)">
        <path d="M53.932,20.636C54.528,19.364 56.772,16.943 57.355,16.943C57.868,16.943 57.635,16.213 56.989,15.789C55.823,15.025 54.567,13.547 53.933,12.192C53.589,11.458 53.21,10.858 53.092,10.858C52.973,10.858 52.527,11.549 52.1,12.395C51.399,13.785 50.115,15.195 48.747,16.081C48.262,16.395 48.274,16.437 49.032,17.007C50.426,18.057 51.549,19.349 52.222,20.677C52.583,21.389 52.974,21.97 53.092,21.97C53.211,21.97 53.589,21.37 53.932,20.636Z" style="fill:white;fill-rule:nonzero;"/>
    </g>
    <g transform="matrix(16.8563,0,0,16.8563,47.156243,34.507419)">
        <path d="M40.027,49.905C41.096,49.458 41.757,48.315 41.757,46.913C41.757,45.728 41.234,44.878 40.166,44.326C38.761,43.6 36.982,44.029 36.084,45.311C35.537,46.091 35.558,48.01 36.121,48.87C36.581,49.573 37.811,50.252 38.656,50.27C38.916,50.276 39.532,50.111 40.027,49.905Z" style="fill:white;fill-rule:nonzero;"/>
    </g>
    <g transform="matrix(16.8563,0,0,16.8563,47.156243,34.507419)">
        <path d="M72.18,49.885C73.292,49.311 73.77,48.473 73.77,47.105C73.77,45.737 73.292,44.901 72.18,44.326C69.271,42.822 66.292,46.467 68.391,48.962C69.083,49.784 69.832,50.217 70.631,50.26C71.129,50.286 71.646,50.162 72.181,49.885L72.18,49.885Z" style="fill:white;fill-rule:nonzero;"/>
    </g>
    <g transform="matrix(16.8563,0,0,16.8563,47.156243,34.507419)">
        <path d="M43.117,114.054C42.337,113.932 41.005,113.468 40.157,113.023L38.614,112.214L36.967,113.064C35.381,113.882 35.207,113.912 32.254,113.891C28.222,113.862 26.513,113.374 25.005,111.82L23.897,110.677L18.473,110.496C10.167,110.218 6.092,109.535 2.885,107.882C0.827,106.82 0.734,105.801 2.65,105.322C5.647,104.574 8.306,103.567 10.188,102.467C13.1,100.765 16.757,97.027 19.388,93.063C21.973,89.169 26.736,79.848 26.623,78.903C26.553,78.316 26.167,78.082 23.5,77.003C13.208,72.84 7.277,67.758 5.369,61.467C4.189,57.579 5.651,50.647 9.509,41.834C10.365,39.881 11.065,38.121 11.065,37.923C11.065,37.725 10.78,37.001 10.433,36.315C7.684,30.882 6.193,22.585 6.83,16.277C7.21,12.525 7.78,10.042 8.512,8.951C9.017,8.199 9.27,8.068 10.352,7.999C13.138,7.819 19.352,9.497 25.088,11.977C26.761,12.701 28.243,13.4 28.382,13.531C28.973,14.089 29.924,13.679 32.015,11.961C36.805,8.027 42.008,4.623 46.519,2.471C51.111,0.281 53.226,0.007 56.545,1.171C61.257,2.822 69.306,7.838 74.881,12.597C75.635,13.241 76.451,13.768 76.693,13.768C76.934,13.768 78.37,13.187 79.883,12.476C82.893,11.063 86.817,9.606 89.91,8.754C92.405,8.066 95.954,7.764 96.722,8.175C98.093,8.91 99.148,13.747 99.162,19.365C99.176,25.355 98.12,30.561 95.837,35.753C95.342,36.878 94.937,37.927 94.937,38.085C94.937,38.243 95.49,39.592 96.164,41.085C99.269,47.952 101.164,54.94 100.954,58.747C100.544,66.204 94.444,72.11 81.841,77.257C80.024,77.998 79.441,78.36 79.378,78.78C79.231,79.782 83.389,87.98 86.361,92.548C88.124,95.256 88.728,95.424 89.688,93.474C90.276,92.28 90.308,91.944 90.308,86.794L90.309,81.369L91.216,79.695C92.839,76.699 95.278,75.155 98.719,74.944C100.677,74.824 100.879,74.866 102.722,75.777C105.73,77.264 107.514,79.571 108.38,83.094C108.888,85.158 109.06,85.352 110.614,85.6C111.341,85.716 111.606,85.888 111.606,86.242C111.606,86.829 108.768,90.88 107.062,92.729C105.96,93.922 105.78,94.026 105.424,93.672C104.854,93.108 101.023,86.107 101.023,85.63C101.023,85.346 101.376,85.212 102.28,85.154C103.37,85.084 103.548,84.991 103.625,84.451C103.77,83.423 103.442,82.603 102.443,81.497C100.707,79.577 97.905,79.537 96.26,81.41C95.325,82.474 95.36,82.225 95.345,88.116C95.333,93.376 95.104,94.334 93.131,97.371C91.886,99.287 91.906,99.405 93.755,101.032C95.385,102.468 98.768,104.095 101.797,104.902C103.168,105.266 104.4,105.674 104.534,105.808C105.745,107.02 101.43,109.135 96.102,109.939C94.777,110.139 91.087,110.387 87.9,110.489L82.105,110.676L80.775,111.923C79.102,113.491 77.601,113.913 73.731,113.897C71.088,113.887 70.808,113.833 69.224,113.029L67.536,112.172L65.912,113.009C62.23,114.909 55.55,114.373 54.032,112.057C53.446,111.162 53.014,111.227 51.668,112.411C51.036,112.968 50.051,113.563 49.478,113.735C48.053,114.162 44.831,114.323 43.117,114.055M46.734,111.592C46.888,111.406 47.051,110.662 47.097,109.938C47.167,108.846 47.267,108.622 47.687,108.622C48.063,108.622 48.305,108.962 48.614,109.926C49.079,111.376 49.424,111.631 50.06,110.996C50.641,110.415 50.61,108.57 49.98,106.402C49.331,104.165 48.01,96.159 48.205,95.649C48.674,94.427 49.947,95.966 51.167,99.229C52.104,101.735 52.251,101.919 53.226,101.823C53.961,101.749 54.091,101.571 54.866,99.583C55.95,96.803 56.744,95.525 57.388,95.525C57.785,95.525 57.896,95.713 57.894,96.385C57.892,97.683 56.914,103.317 56.275,105.712C55.569,108.358 55.5,110.441 56.098,111.039C56.731,111.672 57.29,111.317 57.486,110.157C57.71,108.829 58.01,108.376 58.531,108.575C58.841,108.695 58.954,109.092 58.954,110.06C58.954,111.096 59.064,111.44 59.466,111.656C60.766,112.351 62.126,111.512 62.133,110.011C62.143,108.044 63.303,107.982 63.596,109.933C63.812,111.373 64.06,111.583 64.898,111.033C65.566,110.596 65.788,109.79 66.358,105.712C66.521,104.548 67.198,101.394 67.862,98.702L69.071,93.81L68.328,93.279C67.92,92.986 66.328,91.809 64.792,90.664C63.256,89.519 61.854,88.526 61.679,88.458C61.497,88.388 61.109,88.868 60.775,89.578C60.159,90.889 58.987,91.818 57.949,91.82C56.411,91.822 54.979,90.423 53.807,87.773C53.44,86.943 53.087,86.265 53.024,86.265C52.961,86.265 52.596,86.945 52.216,87.775C50.989,90.455 49.582,91.823 48.053,91.82C46.995,91.818 45.723,90.825 45.165,89.565C44.878,88.915 44.58,88.382 44.505,88.382C44.122,88.382 37.258,93.769 37.258,94.069C37.258,94.262 37.554,95.532 37.916,96.891C38.91,100.628 39.545,103.814 39.931,107.014C40.214,109.357 40.399,110.046 40.909,110.652C41.915,111.847 42.55,111.534 42.55,109.844C42.55,109.09 42.97,108.49 43.495,108.49C43.675,108.49 43.861,109.063 43.937,109.857C44.024,110.762 44.231,111.344 44.55,111.577C45.162,112.024 46.368,112.033 46.734,111.592M32.514,111.391C32.899,111.185 33.025,110.833 33.025,109.968C33.025,109.256 33.18,108.691 33.433,108.481C33.998,108.011 34.276,108.381 34.536,109.945C34.713,111.017 34.864,111.284 35.329,111.35C35.647,111.396 36.146,111.19 36.449,110.887C37.38,109.956 37.121,105.999 35.771,100.552C35.161,98.092 34.285,95.79 33.957,95.79C33.503,95.79 26.712,99.842 26.345,100.332C25.968,100.836 25.932,101.12 26.149,101.875C26.296,102.385 26.634,103.083 26.901,103.428C27.377,104.044 27.419,104.048 29.242,103.723C30.29,103.536 31.625,103.471 32.307,103.573C33.623,103.77 34.877,104.582 34.877,105.236C34.877,105.587 34.603,105.621 33.018,105.465C30.728,105.239 28.692,105.76 27.498,106.875C26.832,107.497 26.675,107.854 26.675,108.745C26.675,110.103 27.059,110.871 27.738,110.871C28.245,110.871 28.421,110.488 28.585,109.019C28.699,108.003 29.694,108.111 29.795,109.151C29.968,111.212 31,112.019 32.513,111.391M75.841,111.011C76.034,110.829 76.259,110.176 76.341,109.561C76.481,108.522 76.999,107.927 77.408,108.336C77.505,108.433 77.648,109.063 77.728,109.736C77.894,111.162 78.266,111.399 79.038,110.571C79.768,109.786 79.786,108.016 79.071,107.107C78.785,106.744 77.923,106.177 77.155,105.846C75.923,105.316 75.485,105.264 73.441,105.409C71.915,105.518 71.124,105.48 71.124,105.3C71.124,104.747 72.415,103.757 73.37,103.578C74.317,103.401 76.602,103.548 78.033,103.88C78.618,104.015 78.813,103.895 79.307,103.096C80.035,101.919 80.087,100.717 79.439,100.002C79.166,99.701 78.166,99.032 77.216,98.516C76.266,98.001 74.916,97.236 74.216,96.816C72.439,95.754 71.994,95.815 71.38,97.204C70.652,98.849 69.577,103.434 69.221,106.414C68.854,109.49 69.076,110.572 70.185,111.105C70.868,111.433 70.984,111.421 71.3,110.988C71.494,110.723 71.653,110.194 71.653,109.813C71.653,109.432 71.832,108.889 72.05,108.607C72.443,108.098 72.45,108.098 72.844,108.607C73.062,108.889 73.241,109.577 73.241,110.137C73.241,110.944 73.363,111.202 73.836,111.39C74.521,111.653 75.299,111.506 75.841,111.011M15.217,107.296C16.992,106.513 18.14,105.502 20.705,102.536C23.588,99.096 24.493,98.388 29.315,95.804C36.595,91.902 41.217,88.467 48.316,81.684C49.489,80.564 49.959,79.929 49.904,79.541C49.798,78.801 48.954,78.85 45.592,79.791C43.257,80.444 42.495,80.531 39.109,80.535C36.126,80.539 34.661,80.409 32.521,79.95C31.008,79.625 29.608,79.422 29.411,79.497C29.214,79.572 28.478,80.859 27.776,82.355C21.753,95.192 15.461,102.806 8.674,105.469C7.644,105.873 7.106,106.285 7.044,106.385C6.809,106.763 7.647,107.461 8.856,107.701C10.614,107.968 13.978,107.811 15.216,107.296M98.199,107.424C98.661,107.262 99.124,106.962 99.186,106.744C99.295,106.364 99.619,106.333 96.886,105.223C93.903,104.011 89.937,100.896 87.393,97.663C85.205,94.885 82.125,89.837 79.468,84.677C76.441,78.798 77.018,79.226 73.24,80.069C71.552,80.446 70.034,80.565 67.154,80.545C63.722,80.521 62.986,80.43 60.171,79.674C58.44,79.209 56.862,78.891 56.665,78.967C55.965,79.236 56.273,80.402 57.281,81.297C57.816,81.774 59.334,83.16 60.654,84.377C65.519,88.867 70.09,92.1 76.812,95.807C81.654,98.478 82.252,98.945 85.038,102.22C88.201,105.937 89.624,107.037 92.158,107.727C93.184,108.007 97.115,107.803 98.199,107.424ZM49.316,89.31C50.01,88.588 50.714,87.096 51.273,85.129C51.603,83.927 51.589,83.829 51.008,83.211C50.671,82.852 50.249,82.559 50.071,82.559C49.505,82.561 47.081,85.457 46.794,86.472C46.396,87.905 46.454,88.49 47.067,89.27C47.754,90.143 48.471,90.156 49.317,89.31M58.607,89.76C59.017,89.499 59.484,88.256 59.484,87.426C59.484,86.01 57.066,82.559 56.074,82.559C55.571,82.559 54.457,83.599 54.457,84.069C54.457,84.827 56.09,88.616 56.701,89.275C57.341,89.965 58.014,90.137 58.608,89.759M53.686,82.293C54.275,82.172 54.851,81.554 54.981,80.427C54.976,78.745 53.839,77.878 52.339,78.365C51.613,78.618 51.219,79.301 51.219,80.309C51.219,81.599 52.021,82.515 53.024,82.4C53.36,82.295 53.574,82.351 53.686,82.293M71.259,78.165C77.567,76.903 86.048,73.766 90.962,70.312C94.603,67.715 97.568,63.991 98.457,61.02C99.237,58.416 98.887,55.061 97.143,49.653C94.798,42.555 90.684,34.438 86.387,28.45C78.8,18.017 69.613,9.962 59.68,5.032C55.016,2.719 53.415,2.352 51.127,3.071C49.004,3.743 42.855,6.829 40.521,8.391C28.283,16.693 18.588,27.81 12.253,41.108C8.64,48.692 6.567,56.126 7.131,59.622C7.703,63.135 11.208,67.742 15.54,70.61C22.553,75.184 33.455,78.835 40.015,78.187C41.8,78.011 42.266,78.12 41.575,78.014C28.13,75.943 16.604,69.294 13.291,62.591C12.078,60.136 11.905,58.626 12.599,56.561C14.159,51.927 21.155,43.07 27.41,37.81C34.378,31.952 43.602,27.499 51.429,26.215C53.061,25.947 53.633,25.977 55.966,26.452C59.747,27.165 63.052,28.313 67.08,30.309C73.353,33.177 77.922,36.623 82.835,41.796C88.135,47.175 92.595,53.57 93.52,56.852C95.795,64.365 84.156,73.611 68.082,76.995C64.541,77.74 64.235,77.953 64.308,78.195C64.57,79.067 68.011,78.481 71.257,78.167M61.997,75.395C71.143,74.264 78.304,71.209 84.407,65.833C86.507,63.985 86.797,63.372 85.907,62.663L85.28,62.164L86.057,61.58C89.487,59.001 90.077,57.782 88.199,57.163C86.971,56.757 86.526,56.161 85.951,54.149C85.221,51.597 84.377,49.924 82.471,47.25C78,40.977 71.328,36.158 64.191,34.045C60.247,32.877 58.611,32.685 52.736,32.704C46.357,32.724 44.312,33.068 39.586,34.917C30.412,38.503 22.165,46.641 20.193,54.051C19.679,55.981 19.488,56.225 17.856,57.027C17.264,57.319 16.737,57.697 16.685,57.869C16.554,58.296 18.315,60.201 19.758,61.193L20.941,62.007L20.236,62.614C19.934,62.906 19.892,63.305 19.884,63.604C19.857,64.565 25.521,69.235 29.656,71.154C34.872,73.575 40.868,75.201 47.532,75.676C51.148,75.934 58.906,75.751 61.997,75.396M51.054,67.702C49.689,67.027 48.577,65.586 47.823,63.516C47.461,62.525 47.035,61.872 46.566,61.594C44.808,60.549 43.74,58.614 44.549,57.942C44.893,57.657 45.141,57.785 46.146,58.772C47.223,59.828 47.454,59.937 48.583,59.921C49.99,59.901 51.119,59.291 51.66,58.258C52,57.61 51.955,57.52 50.723,56.364C49.186,54.921 49.016,54.004 50.145,53.264C51.209,52.567 55.233,52.591 56.016,53.299C57.05,54.235 56.663,55.677 55.121,56.629C54.61,56.945 54.191,57.42 54.191,57.684C54.191,58.368 55.867,59.75 56.941,59.951C58.214,60.19 58.937,59.892 60.053,58.671C60.697,57.967 61.16,57.669 61.443,57.776C62.467,58.169 61.498,60.336 59.793,61.466C59,61.99 58.651,62.489 58.187,63.761C57.479,65.703 56.302,67.123 54.855,67.78C53.455,68.416 52.455,68.395 51.055,67.702M54.723,66.266C55.638,65.793 56.52,64.678 56.52,64.039C56.52,63.35 54.862,62.072 53.744,61.863C51.86,61.509 49.582,62.679 49.695,64.055C49.788,65.191 51.566,66.687 52.884,66.685C53.472,66.684 54.195,66.523 54.625,66.31M32.579,57.96C26.187,54.738 26.293,45.663 32.76,42.3C34.405,41.446 37.37,41.454 39.165,42.32C40.766,43.091 42.417,44.892 43.268,46.794C44.161,48.79 44.223,51.926 43.408,53.771C42.119,56.77 39.546,58.647 36.2,58.694C34.407,58.777 34.058,58.706 32.579,57.96M40.027,49.905C41.096,49.458 41.757,48.315 41.757,46.913C41.757,45.728 41.234,44.878 40.166,44.326C38.761,43.6 36.982,44.029 36.084,45.311C35.537,46.091 35.558,48.01 36.121,48.87C36.581,49.573 37.811,50.252 38.656,50.27C38.916,50.276 39.532,50.111 40.027,49.905M66.704,58.061C64.892,57.248 63.051,55.227 62.382,53.244C61.275,50.313 62.157,46.386 64.444,44.066C66.134,42.352 67.597,41.733 69.96,41.73C72.393,41.727 73.803,42.397 75.718,44.465C77.558,46.454 78.095,47.96 77.961,50.761C77.798,54.167 76.339,56.391 73.239,57.955C71.142,59.013 68.752,59.052 66.704,58.061M72.18,49.885C73.292,49.311 73.77,48.473 73.77,47.105C73.77,45.737 73.292,44.901 72.18,44.326C69.271,42.822 66.292,46.467 68.391,48.962C69.514,50.296 70.786,50.606 72.181,49.885M13.447,32.948C14.274,31.502 14.277,31.481 13.882,30.236C12.713,26.562 12.35,24.396 12.207,20.25C12.038,15.361 12.228,14.203 13.219,14.085C14.883,13.888 18.54,15.972 21.056,18.551L22.712,20.25L24.627,18.15C25.681,16.996 26.543,15.925 26.543,15.77C26.543,15.389 23.139,13.764 20.06,12.64C17.411,11.673 14.134,10.745 12.098,10.477C10.442,10.259 10.298,10.43 9.607,14.827C8.762,20.206 9.593,26.714 11.314,32.127C11.752,33.505 12.277,34.406 12.533,34.406C12.577,34.406 12.988,33.75 13.447,32.948M94.354,33.017C95.188,30.757 95.416,29.919 95.984,27.035C97.09,21.429 96.516,10.698 95.104,10.565C93.601,10.424 89.219,11.469 85.544,12.844C82.79,13.875 79.327,15.512 79.327,15.784C79.327,15.983 83.02,19.958 83.307,20.067C83.424,20.112 84.285,19.384 85.22,18.449C87.048,16.621 89.68,14.991 91.814,14.366C93.914,13.75 94.012,13.954 93.981,18.868C93.956,22.835 93.631,25.282 92.692,28.585C91.902,31.364 91.905,31.8 92.725,33.159C93.14,33.845 93.56,34.406 93.66,34.406C93.76,34.406 94.072,33.781 94.354,33.016" style="fill:rgb(4,2,3);fill-rule:nonzero;"/>
    </g>
    <g transform="matrix(16.8563,0,0,16.8563,47.156243,34.507419)">
        <path d="M9.146,106.977C8.128,106.83 8.18,106.512 9.279,106.095C15.592,103.592 21.542,96.542 27.523,84.478C28.971,81.558 29.792,80.18 30.083,80.182C30.319,80.184 31.159,80.357 31.951,80.568C32.743,80.778 34.794,81.087 36.51,81.252C40.088,81.597 42.796,81.345 46.585,80.316C47.858,79.97 48.9,79.784 48.9,79.903C48.9,80.167 43.25,85.451 41.195,87.109C37.473,90.111 32.675,93.218 27.601,95.912C24.076,97.783 22.919,98.734 20.161,102.024C17.508,105.19 15.927,106.431 13.975,106.879C12.805,107.149 10.577,107.193 9.146,106.977M91.799,106.862C89.871,106.307 88.476,105.133 85.384,101.462C83.052,98.692 81.622,97.602 77.064,95.112C72.669,92.712 68.444,89.936 65.144,87.278C62.045,84.781 57.285,80.282 57.406,79.963C57.46,79.819 58.05,79.866 58.822,80.076C64.905,81.734 70.22,81.798 75.806,80.282C76.332,80.139 76.596,80.542 78.622,84.583C84.556,96.422 89.412,102.398 95.522,105.38C96.789,105.998 97.832,106.579 97.837,106.67C97.872,107.191 93.386,107.329 91.799,106.862M47.63,88.857C46.874,88.1 47.562,85.889 49.039,84.331C49.882,83.441 50.639,83.486 50.577,84.422C50.511,85.42 49.429,88.116 48.87,88.676C48.288,89.258 48.064,89.29 47.63,88.856M56.746,88.049C56.393,87.43 55.898,86.287 55.646,85.509C55.23,84.218 55.226,84.056 55.609,83.674C55.99,83.292 56.078,83.301 56.605,83.767C58.265,85.238 59.225,88.002 58.372,88.856C57.824,89.464 57.412,89.26 56.746,88.049M52.563,81.569C52.06,81.481 51.72,80.457 51.974,79.794C52.388,78.714 53.826,78.682 54.097,79.76C54.567,81.002 53.835,81.818 52.563,81.57L52.563,81.569ZM31.775,76.737C23.195,74.489 16.801,71.282 12.517,67.081C9.845,64.461 8.652,62.611 8.007,60.088C7.618,58.574 7.617,58.222 8,55.979C8.83,51.106 10.546,46.267 13.727,39.829C19.41,28.322 28.05,18.288 39.375,10.04C43.379,7.125 51.029,3.45 53.095,3.45C54.476,3.45 56.702,4.285 60.277,6.144C77.579,15.145 92.477,34.018 97.323,53.076C98.631,58.217 98.37,60.7 96.164,64.122C92.823,69.307 84.648,74.098 74.835,76.622C71.053,77.596 70.878,77.375 74.432,76.11C83.889,72.747 90.321,68.445 93.075,63.642C94.193,61.692 94.755,59.51 94.54,57.949C93.954,54.212 89.045,47.041 82.525,40.475C74.981,32.946 67.305,28.535 57.251,25.95C54.36,25.206 51.706,25.247 48.466,26.083C36.209,29.249 25.255,36.803 17.026,47.767C12.903,53.259 11.143,56.952 11.439,59.491C11.781,62.431 14.203,66.073 17.629,68.803C21.357,71.773 26.049,74.138 32.629,76.363C35.535,77.347 34.999,77.583 31.775,76.738M53.932,20.636C54.528,19.364 56.772,16.943 57.355,16.943C57.868,16.943 57.635,16.213 56.989,15.789C55.823,15.025 54.567,13.547 53.933,12.192C53.589,11.458 53.21,10.858 53.092,10.858C52.973,10.858 52.527,11.549 52.1,12.395C51.399,13.785 50.115,15.195 48.747,16.081C48.262,16.395 48.274,16.437 49.032,17.007C50.426,18.057 51.549,19.349 52.222,20.677C52.583,21.389 52.974,21.97 53.092,21.97C53.211,21.97 53.589,21.37 53.932,20.636M52.207,65.846C51.262,65.324 50.487,64.487 50.487,63.989C50.487,63.377 51.967,62.454 52.948,62.452C53.782,62.452 54.984,63.003 55.499,63.623C55.968,64.188 55.339,65.133 54.105,65.719C53.033,66.228 52.911,66.236 52.207,65.847M26.062,62.863C22.532,61.629 22.913,58.696 26.66,57.929C28.726,57.461 31.755,58.738 32.13,60.236C32.67,62.381 29.074,63.937 26.062,62.863M75.712,62.861C73.619,61.952 73.193,60.555 74.635,59.154C76.121,57.655 78.731,57.372 80.948,58.51C81.985,59.029 82.238,59.437 82.238,60.598C82.269,62.564 78.216,63.968 75.711,62.861" style="fill:rgb(230,20,44);fill-rule:nonzero;"/>
    </g>
    <g transform="matrix(16.8563,0,0,16.8563,47.156243,34.507419)">
        <path d="M8.22,107.134C7.693,107.012 7.33,106.819 7.36,106.677C7.384,106.52 8.26,106.04 9.385,105.577C12.019,104.405 13.653,103.238 16.057,100.983C19.858,97.303 23.348,92.076 27.258,84.205C28.435,81.835 29.47,79.854 29.558,79.8C29.646,79.747 30.789,79.954 32.099,80.26C34.046,80.715 35.325,80.816 39.11,80.812C43.493,80.808 43.886,80.765 46.448,80.003C50.568,78.779 50.509,79.143 45.901,83.421C40.279,88.641 35.469,92.074 28.659,95.73C24.339,98.05 23.099,99.038 20.351,102.358C17.92,105.295 16.593,106.426 14.849,107.048C13.716,107.5 9.537,107.537 8.22,107.134M13.975,106.879C15.927,106.43 17.508,105.189 20.161,102.024C22.919,98.734 24.076,97.784 27.601,95.912C32.675,93.218 37.473,90.112 41.195,87.109C43.25,85.451 48.9,80.167 48.9,79.903C48.9,79.783 47.858,79.969 46.585,80.315C42.796,81.345 40.088,81.597 36.51,81.252C34.794,81.086 32.743,80.779 31.951,80.568C31.159,80.358 30.319,80.183 30.083,80.182C29.792,80.18 28.971,81.557 27.523,84.478C21.543,96.541 15.593,103.592 9.279,106.095C8.806,106.283 8.419,106.533 8.419,106.651C8.419,107.134 12.193,107.289 13.975,106.879M91.365,107.117C89.709,106.579 88.585,105.605 86.575,103.282C82.671,98.909 81.472,97.902 77.833,95.939C70.522,91.995 66.261,88.981 60.429,83.629C57.097,80.571 56.203,79.385 57.231,79.385C57.448,79.385 58.787,79.699 60.208,80.083C63.701,81.027 68.822,81.229 72.448,80.566C73.83,80.313 75.339,80.051 75.801,79.983L76.641,79.861L79.292,85.113C85.272,96.958 90.394,102.922 96.937,105.653C98.719,106.397 98.874,106.518 98.505,106.886C98.14,107.595 92.647,107.709 91.365,107.117M97.021,107.001C97.476,106.91 97.843,106.761 97.837,106.67C97.831,106.579 96.789,105.998 95.522,105.38C89.412,102.398 84.556,96.422 78.622,84.583C76.596,80.543 76.332,80.139 75.806,80.282C70.22,81.798 64.905,81.734 58.822,80.076C58.05,79.866 57.46,79.819 57.406,79.962C57.285,80.282 62.045,84.782 65.145,87.278C68.443,89.935 72.669,92.713 77.063,95.112C81.623,97.602 83.053,98.692 85.384,101.462C89.418,106.252 90.757,107.092 94.441,107.142C95.406,107.155 96.566,107.092 97.021,107.001M47.487,89.22C46.916,88.612 46.901,87.01 47.455,85.886C47.678,85.416 48.335,84.567 48.917,84C49.781,83.156 50.057,83.02 50.429,83.254C51.119,83.686 51.124,84.541 50.447,86.457C49.872,88.085 48.739,89.703 48.174,89.703C48.037,89.703 47.728,89.486 47.487,89.22M48.871,88.675C49.431,88.115 50.512,85.42 50.578,84.422C50.64,83.486 49.883,83.441 49.04,84.331C47.563,85.889 46.875,88.101 47.631,88.857C48.065,89.29 48.289,89.257 48.871,88.675M56.966,89.012C56.303,88.296 55.302,85.935 55.07,84.541C54.972,83.953 55.084,83.611 55.497,83.238C56.052,82.736 56.063,82.738 56.987,83.635C58.282,84.889 59.3,87.033 59.066,88.015C58.873,88.825 58.236,89.703 57.843,89.703C57.679,89.741 57.275,89.439 56.966,89.012M58.373,88.857C59.227,88.003 58.267,85.239 56.606,83.767C56.079,83.301 55.992,83.293 55.61,83.675C55.228,84.057 55.231,84.218 55.648,85.51C56.224,87.296 57.288,89.174 57.723,89.174C57.906,89.174 58.199,89.031 58.373,88.857M51.963,81.614C51.004,80.649 51.725,78.549 53.014,78.576C53.979,78.447 54.824,79.708 54.566,80.84C54.321,82.003 52.794,82.437 51.963,81.614M54.15,80.854C54.404,79.564 53.561,78.607 52.617,79.113C52.001,79.443 51.771,80.057 51.969,80.845C52.221,81.848 53.953,81.855 54.15,80.855M35.76,77.927C28.905,76.855 21.162,73.901 15.727,70.285C11.318,67.351 7.884,62.763 7.472,59.254C6.838,53.856 11.922,40.692 18.346,31.098C26.523,18.857 38.848,8.238 50.083,3.848C51.662,3.228 52.342,3.106 53.734,3.192C55.341,3.325 56.025,3.611 59.439,5.327C69.618,10.444 78.513,18.241 86.123,28.717C91.683,36.373 96.478,46.803 98.133,54.844C98.774,57.896 98.71,59.467 97.831,61.778C96.909,64.242 94.229,67.479 91.367,69.587C85.6,73.877 75.362,77.652 68.083,78.223C65.216,78.453 65.717,78.039 69.406,77.127C85.46,73.16 96.02,64.317 93.883,56.63C92.715,52.425 84.261,41.8 78.153,36.861C72.223,32.065 65.29,28.466 58.381,26.596C54.528,25.553 52.473,25.483 49.165,26.285C41.295,28.191 33.32,32.277 27.008,37.635C21.844,42.02 15.743,49.369 13.275,54.18C12.164,56.345 11.987,56.911 11.907,58.567C11.819,60.363 11.877,60.592 12.944,62.717C15.993,68.784 25.013,74.209 36.922,77.136C38.556,77.538 39.829,77.97 39.751,78.096C39.566,78.396 38.437,78.348 35.759,77.928M32.629,76.365C26.049,74.138 21.357,71.773 17.629,68.804C14.203,66.074 11.781,62.431 11.439,59.492C11.143,56.953 12.903,53.26 17.025,47.768C25.255,36.804 36.209,29.25 48.466,26.084C51.706,25.248 54.36,25.207 57.251,25.951C67.305,28.536 74.981,32.947 82.525,40.476C86.406,44.35 88.573,46.945 91.047,50.678C94.333,55.566 95.162,58.014 94.276,60.784C92.558,66.887 85.795,72.079 74.432,76.111C70.878,77.376 71.052,77.597 74.835,76.624C84.648,74.099 92.823,69.308 96.165,64.124C98.37,60.701 98.631,58.218 97.323,53.077C92.477,34.018 77.58,15.145 60.277,6.144C56.702,4.284 54.477,3.449 53.095,3.449C51.029,3.449 43.379,7.124 39.375,10.041C28.05,18.288 19.411,28.322 13.727,39.829C10.547,46.27 8.83,51.107 8,55.98C7.617,58.223 7.618,58.574 8.006,60.09C8.652,62.612 9.846,64.461 12.516,67.081C16.801,71.283 23.196,74.489 31.776,76.738C34.999,77.583 35.535,77.348 32.628,76.364M51.296,65.73C50.17,64.783 49.872,64.166 50.221,63.512C50.993,62.071 54.081,61.758 55.391,62.989C56.367,63.906 56.235,64.691 54.946,65.625C53.553,66.634 52.409,66.667 51.296,65.73M54.106,65.719C55.339,65.134 55.968,64.188 55.499,63.623C54.984,63.003 53.782,62.451 52.949,62.453C51.966,62.453 50.488,63.377 50.488,63.989C50.488,64.487 51.262,65.324 52.208,65.847C52.911,66.237 53.033,66.227 54.105,65.719M26.096,63.371C24.458,62.847 23.234,61.621 23.234,60.505C23.234,57.411 28.902,56.273 31.569,58.833C32.685,59.904 32.886,60.781 32.253,61.822C31.333,63.412 28.433,64.124 26.096,63.371M30.516,62.713C32.497,61.754 32.714,60.182 31.06,58.922C28.089,56.923 22.764,58.329 23.769,60.997C24.484,62.915 28.166,63.851 30.516,62.713M75.776,63.382C73.259,62.485 72.621,60.454 74.357,58.862C75.526,57.792 77.147,57.319 79,57.509C83.507,57.97 84.028,62.103 79.741,63.384C78.139,63.863 77.125,63.862 75.776,63.382ZM79.649,62.969C81.672,62.407 82.639,60.997 82.049,59.459C81.852,58.947 80.266,58.117 79.05,57.885C75.685,57.381 72.505,60.14 74.321,61.944C75.522,63.145 77.585,63.542 79.649,62.969" style="fill:rgb(161,23,40);fill-rule:nonzero;"/>
    </g>
    <g transform="matrix(16.8563,0,0,16.8563,47.156243,34.507419)">
        <path d="M8.867,107.7C6.26,107.228 6.197,106.44 8.688,105.463C15.461,102.806 21.759,95.181 27.778,82.353C28.479,80.858 29.215,79.572 29.412,79.496C29.609,79.421 31.009,79.624 32.522,79.949C34.662,80.408 36.127,80.538 39.11,80.534C42.496,80.53 43.258,80.443 45.593,79.789C48.955,78.849 49.799,78.799 49.905,79.539C49.96,79.929 49.49,80.563 48.317,81.684C41.218,88.466 36.596,91.901 29.315,95.803C24.495,98.387 23.589,99.095 20.706,102.534C17.197,106.737 15.739,107.658 12.176,107.823C11.056,107.883 9.566,107.828 8.866,107.701M14.848,107.05C16.592,106.427 17.918,105.296 20.35,102.36C23.097,99.04 24.337,98.05 28.658,95.73C35.468,92.075 40.278,88.641 45.9,83.422C50.508,79.144 50.566,78.78 46.447,80.005C43.885,80.766 43.492,80.809 39.109,80.813C35.324,80.816 34.045,80.716 32.098,80.261C30.788,79.955 29.645,79.748 29.557,79.801C29.469,79.855 28.434,81.837 27.257,84.206C23.347,92.077 19.857,97.305 16.056,100.984C13.683,103.281 12.042,104.411 9.384,105.579C8.271,106.069 7.359,106.563 7.359,106.679C7.359,107.394 13.085,107.679 14.848,107.049M92.158,107.726C89.625,107.036 88.202,105.936 85.039,102.219C82.253,98.944 81.655,98.477 76.813,95.807C70.091,92.099 65.52,88.866 60.655,84.377C59.537,83.343 58.413,82.316 57.282,81.297C56.274,80.401 55.966,79.235 56.666,78.966C56.863,78.89 58.441,79.208 60.172,79.673C62.987,80.429 63.723,80.521 67.155,80.544C70.035,80.564 71.553,80.445 73.241,80.068C77.02,79.225 76.441,78.798 79.469,84.676C82.126,89.836 85.206,94.884 87.394,97.663C90.118,101.109 94.259,104.105 97.513,105.478C99.621,106.247 99.902,106.739 98.589,107.368C97.734,107.778 93.264,108.027 92.159,107.726M98.505,106.886C98.874,106.518 98.719,106.396 96.937,105.653C90.394,102.923 85.271,96.958 79.292,85.113L76.641,79.861L75.801,79.983C75.339,80.051 73.831,80.313 72.448,80.566C68.822,81.23 63.701,81.028 60.208,80.083C58.787,79.699 57.448,79.385 57.231,79.385C56.203,79.385 57.097,80.571 60.429,83.629C66.261,88.982 70.522,91.995 77.833,95.939C81.472,97.902 82.671,98.909 86.574,103.282C89.891,106.926 90.804,107.49 95.213,107.446C97.476,107.4 98.194,107.198 98.505,106.886M47.067,89.272C46.453,88.492 46.397,87.907 46.794,86.474C47.077,85.457 49.502,82.561 50.071,82.561C50.249,82.561 50.671,82.854 51.008,83.213C51.588,83.831 51.602,83.929 51.273,85.131C50.46,88.095 49.245,89.969 48.138,89.969C47.85,89.969 47.368,89.655 47.068,89.272M49.13,88.935C49.816,88.049 50.964,85.442 50.944,84.146C50.896,83.821 50.68,83.412 50.429,83.255C50.056,83.021 49.781,83.157 48.917,84.001C47.644,85.266 47.053,86.421 47.049,87.739C47.059,88.663 47.666,89.612 48.174,89.705C48.312,89.705 48.742,89.35 49.13,88.935ZM56.701,89.277C56.091,88.617 54.457,84.829 54.457,84.071C54.457,83.601 55.571,82.561 56.074,82.561C56.691,82.528 58.302,84.32 58.927,85.659C60.545,88.422 58.63,91.291 56.701,89.277M58.481,89.242C58.693,88.945 58.963,88.421 59.066,88.016C59.3,87.034 58.282,84.89 56.988,83.636C56.063,82.74 56.052,82.736 55.497,83.239C54.845,83.829 54.897,84.529 55.763,86.829C56.365,88.229 57.278,89.621 57.843,89.705C57.973,89.705 58.26,89.496 58.482,89.242M52.127,82.231C51.352,81.848 50.969,80.777 51.333,79.451C51.615,78.029 54.004,77.77 54.707,79.091C55.161,79.93 55.06,81.196 54.475,81.771C54.326,82.042 53.866,82.297 53.686,82.297C53.581,82.336 53.318,82.394 53.091,82.411C52.897,82.474 52.463,82.393 52.127,82.231M53.917,81.774C54.799,81.224 54.789,79.438 53.823,78.794C52.847,78.143 51.548,79.022 51.548,80.334C51.548,81.754 52.674,82.439 53.916,81.774M65.437,78.654C64.855,78.601 64.272,78.451 64.14,78.322C63.81,77.998 64.688,77.696 67.951,77.015C79.541,74.593 89.453,68.897 92.611,62.843C94.433,59.353 94.219,57.267 91.596,52.916C87.137,45.536 79.759,37.931 72.506,33.233C69.919,31.562 64.159,28.823 61.111,27.815C59.75,27.365 57.435,26.752 55.967,26.453C53.634,25.978 53.062,25.948 51.43,26.216C43.603,27.5 34.38,31.953 27.411,37.811C21.156,43.071 14.159,51.928 12.601,56.563C11.906,58.627 12.079,60.137 13.292,62.592C16.39,68.861 27.028,74.849 39.376,77.275C42.761,77.94 42.842,78.592 39.539,78.592C32.746,78.592 22.259,75.104 15.541,70.611C11.135,67.664 7.689,63.161 7.132,59.623C6.578,56.1 8.623,48.706 12.254,41.109C18.617,27.797 28.24,16.659 40.522,8.392C42.845,6.826 49,3.74 51.127,3.07C53.415,2.35 55.017,2.718 59.68,5.032C69.613,9.96 78.799,18.016 86.385,28.452C92.986,37.532 98.906,51.577 98.906,58.158C98.886,63.429 94.462,68.86 86.868,72.794C80.257,76.322 70.138,79.088 65.436,78.653M39.751,78.096C39.829,77.969 38.556,77.536 36.922,77.136C25.012,74.208 15.992,68.784 12.944,62.716C11.876,60.591 11.819,60.362 11.907,58.566C11.987,56.911 12.164,56.344 13.275,54.179C15.743,49.369 21.845,42.019 27.008,37.635C33.32,32.275 41.295,28.19 49.165,26.284C52.473,25.483 54.528,25.552 58.381,26.594C65.291,28.465 72.223,32.064 78.153,36.86C84.261,41.8 92.715,52.425 93.883,56.629C96.019,64.318 85.46,73.16 69.405,77.127C65.715,78.039 65.215,78.454 68.082,78.223C72.387,77.877 78.322,76.247 83.564,73.972C92.455,70.084 97.855,64.638 98.531,58.94C98.696,56.28 97.05,49.867 94.545,43.798C89.966,33.153 83.162,23.53 74.766,15.968C69.299,11.114 65.201,8.28 59.438,5.328C53.584,2.334 52.522,2.446 45.682,5.877C35.926,10.844 25.41,20.546 18.345,31.098C11.92,40.692 6.837,53.856 7.47,59.254C7.882,62.763 11.316,67.351 15.725,70.285C21.16,73.901 28.903,76.855 35.758,77.928C38.436,78.347 39.565,78.394 39.75,78.096M50.752,65.728C49.517,64.612 49.362,63.638 50.288,62.795C51.78,61.435 54.138,61.428 55.677,62.779C56.713,63.689 56.788,64.221 56.019,65.199C55.263,66.161 54.157,66.685 52.882,66.685C52.023,66.685 51.602,66.495 50.752,65.728M54.945,65.625C56.234,64.691 56.366,63.905 55.39,62.989C54.08,61.758 50.992,62.071 50.22,63.513C49.87,64.166 50.17,64.783 51.295,65.73C52.408,66.667 53.552,66.634 54.945,65.625M25.79,63.669C23.817,62.934 22.573,61.194 22.987,59.749C23.58,57.682 26.854,56.588 29.908,57.436C31.137,57.75 32.689,59.159 32.905,60.156C33.2,61.205 32.62,62.408 31.395,63.172C30.13,64.009 27.362,64.255 25.79,63.669M30.807,63.08C31.983,62.533 32.753,61.469 32.552,60.306C32.343,59.363 30.891,58.083 29.684,57.748C25.352,56.536 21.529,59.558 24.047,62.164C25.595,63.712 28.614,64.121 30.807,63.08M75.227,63.541C73.822,62.897 73.226,62.18 73.059,60.938C72.801,58.894 75.181,57.152 78.211,57.166C79.125,57.163 80.262,57.322 80.737,57.521C82.05,58.069 83.031,59.386 83.031,60.599C83.031,63.152 78.279,64.943 75.226,63.541M79.741,63.384C84.028,62.103 83.507,57.971 79.001,57.509C77.147,57.319 75.526,57.792 74.357,58.863C72.621,60.453 73.259,62.485 75.777,63.382C77.125,63.862 78.139,63.863 79.741,63.384Z" style="fill:rgb(94,14,24);fill-rule:nonzero;"/>
    </g>
    <g transform="matrix(16.8563,0,0,16.8563,47.156243,34.507419)">
        <path d="M41.999,114.212C41.332,114.032 40.328,113.615 39.769,113.284L38.751,112.684L37.279,113.429C35.989,114.081 35.448,114.186 32.911,114.273C28.496,114.423 26.432,113.84 24.534,111.903L23.521,110.87L19.476,110.867C12.269,110.862 7.478,110.244 4.142,108.888C1.856,107.96 1.01,107.278 1.01,106.363C1.01,105.459 1.327,105.255 3.662,104.653C11.084,102.743 16.135,98.293 21.365,89.055C23.437,85.397 26.139,79.835 26.225,79.053C26.267,78.665 25.684,78.325 23.373,77.391C13.345,73.337 7.285,68.294 5.206,62.273C3.666,57.815 5.074,50.696 9.389,41.114L10.835,37.901L9.899,36.042C8.837,33.934 7.331,29.157 6.797,26.203C6.249,23.175 6.317,15.247 6.913,12.476C7.588,9.344 8.249,8.044 9.354,7.679C11.685,6.91 19.981,9.116 26.931,12.354C29.376,13.493 29.45,13.51 30.027,13.049C30.352,12.789 32.058,11.446 33.817,10.064C40.97,4.446 49.413,0.009 52.955,0.009C56.69,0.009 65.902,4.875 73.047,10.622C76.782,13.627 76.674,13.569 77.617,13.078C79.631,12.028 84.5,10.043 87.133,9.198C90.696,8.055 92.659,7.642 94.785,7.59C97.138,7.532 97.655,7.954 98.543,10.657C99.203,12.665 99.335,13.277 99.444,18.14C99.609,25.482 98.789,29.871 96.413,35.421C95.893,36.634 95.468,37.815 95.468,38.045C95.468,38.275 96.137,40.02 96.954,41.925C99.558,47.987 101.554,55.038 101.554,58.175C101.554,59.74 100.844,62.134 99.674,64.525C98.834,66.239 98.113,67.215 96.436,68.903C93.171,72.189 90.103,74.1 83.429,77.003C80.757,78.166 79.971,78.623 79.909,79.048C79.754,80.093 86.154,92.134 87.791,93.876C88.49,94.62 88.764,94.462 89.467,92.91C89.974,91.79 90.015,91.273 89.957,86.761C89.9,82.361 89.951,81.682 90.43,80.411C91.457,77.687 93.912,75.517 96.853,74.734C98.743,74.231 99.875,74.264 101.64,74.871C105.333,76.141 107.863,79.035 108.803,83.063C109.284,85.126 109.348,85.205 110.533,85.205C111.121,85.205 111.684,85.376 111.883,85.615C112.327,86.15 111.923,86.999 109.853,89.879C106.871,94.028 105.87,94.814 104.938,93.739C104.103,92.773 100.449,85.706 100.593,85.332C100.688,85.083 101.107,84.939 101.743,84.937C103.304,84.931 103.562,84.655 103.185,83.399C102.839,82.243 101.417,80.816 100.343,80.547C99.454,80.324 97.945,80.584 97.165,81.095C95.835,81.966 95.643,82.835 95.701,87.722C95.763,92.957 95.416,94.559 93.62,97.338C93.035,98.242 92.557,99.073 92.557,99.185C92.557,99.545 94.232,100.996 95.732,101.939C97.485,103.039 99.98,104.055 102.456,104.676C104.197,105.113 105.257,105.764 105.257,106.398C105.257,107.028 103.542,108.235 101.563,108.998C98.329,110.245 95.542,110.632 88.589,110.798L82.371,110.948L81.577,111.797C79.849,113.645 77.873,114.302 74.018,114.307C71.364,114.309 69.058,113.815 68.48,113.118C68.006,112.547 67.566,112.618 65.608,113.582C63.905,114.42 63.775,114.442 60.416,114.434C57.379,114.427 56.826,114.354 55.748,113.825C55.075,113.495 54.25,112.933 53.916,112.576C53.581,112.22 53.198,111.928 53.064,111.928C52.931,111.928 52.332,112.348 51.733,112.86C51.133,113.373 50.052,113.968 49.328,114.183C47.738,114.655 43.704,114.671 42,114.211L41.999,114.212ZM49.479,113.735C50.051,113.563 51.036,112.968 51.669,112.411C53.014,111.227 53.446,111.162 54.033,112.057C55.55,114.373 62.23,114.908 65.913,113.009L67.536,112.172L69.224,113.029C70.808,113.833 71.088,113.887 73.731,113.897C77.601,113.912 79.102,113.491 80.775,111.923L82.105,110.676L87.9,110.49C91.087,110.387 94.777,110.14 96.102,109.94C101.43,109.135 105.746,107.02 104.534,105.808C104.4,105.675 103.168,105.266 101.797,104.901C98.768,104.095 95.386,102.468 93.755,101.032C91.905,99.405 91.885,99.287 93.131,97.371C95.104,94.334 95.333,93.377 95.345,88.116C95.359,82.226 95.325,82.474 96.26,81.41C97.905,79.537 100.707,79.576 102.443,81.497C103.442,82.603 103.77,83.423 103.625,84.451C103.548,84.991 103.37,85.084 102.28,85.154C101.376,85.212 101.023,85.346 101.023,85.63C101.023,86.107 104.855,93.108 105.424,93.672C105.78,94.026 105.96,93.922 107.062,92.729C108.768,90.879 111.606,86.829 111.606,86.242C111.606,85.888 111.341,85.716 110.614,85.6C109.06,85.352 108.888,85.159 108.38,83.094C107.514,79.571 105.73,77.264 102.722,75.777C100.879,74.866 100.677,74.824 98.719,74.944C95.278,75.154 92.839,76.699 91.216,79.695L90.309,81.369L90.309,86.793C90.307,91.943 90.276,92.28 89.689,93.473C88.728,95.424 88.124,95.256 86.361,92.548C83.389,87.981 79.231,79.782 79.378,78.78C79.44,78.36 80.024,77.998 81.841,77.257C94.444,72.11 100.544,66.204 100.955,58.747C101.165,54.94 99.269,47.952 96.165,41.085C95.49,39.592 94.938,38.242 94.938,38.085C94.938,37.928 95.342,36.878 95.838,35.753C98.12,30.561 99.176,25.354 99.162,19.364C99.148,13.747 98.093,8.91 96.722,8.175C95.954,7.765 92.405,8.066 89.91,8.754C86.817,9.606 82.893,11.064 79.883,12.476C78.37,13.186 76.934,13.768 76.693,13.768C76.452,13.768 75.635,13.241 74.881,12.597C69.306,7.839 61.257,2.822 56.545,1.17C53.226,0.007 51.11,0.281 46.519,2.472C42.009,4.622 36.805,8.027 32.015,11.962C29.925,13.679 28.973,14.089 28.382,13.531C28.243,13.4 26.761,12.701 25.088,11.977C19.353,9.497 13.138,7.82 10.352,8C9.27,8.07 9.017,8.2 8.512,8.952C7.779,10.042 7.209,12.526 6.83,16.278C6.192,22.587 7.684,30.883 10.433,36.316C10.78,37.002 11.065,37.726 11.065,37.924C11.065,38.122 10.365,39.882 9.51,41.835C5.65,50.647 4.189,57.58 5.369,61.467C7.277,67.757 13.209,72.84 23.5,77.003C26.167,78.082 26.553,78.317 26.623,78.903C26.736,79.848 21.973,89.169 19.388,93.063C16.757,97.027 13.1,100.765 10.188,102.467C8.306,103.567 5.648,104.574 2.65,105.322C0.734,105.801 0.827,106.82 2.885,107.882C6.092,109.535 10.167,110.218 18.473,110.496L23.897,110.676L25.005,111.82C26.513,113.374 28.222,113.862 32.255,113.891C35.207,113.912 35.381,113.881 36.967,113.064L38.614,112.214L40.157,113.023C41.005,113.468 42.337,113.932 43.117,114.054C44.831,114.324 48.053,114.162 49.479,113.734M44.55,111.575C44.231,111.342 44.024,110.76 43.937,109.855C43.861,109.061 43.676,108.488 43.495,108.488C42.969,108.488 42.55,109.088 42.55,109.842C42.55,111.532 41.915,111.845 40.91,110.65C40.399,110.044 40.214,109.355 39.93,107.012C39.545,103.812 38.91,100.626 37.916,96.889C37.554,95.529 37.258,94.26 37.258,94.067C37.258,93.767 44.122,88.38 44.505,88.38C44.58,88.38 44.878,88.912 45.165,89.563C45.723,90.823 46.995,91.816 48.053,91.818C49.583,91.82 50.989,90.454 52.216,87.773C52.596,86.943 52.96,86.263 53.024,86.263C53.088,86.263 53.44,86.941 53.807,87.771C54.979,90.421 56.411,91.821 57.949,91.818C58.987,91.816 60.159,90.888 60.775,89.577C61.109,88.867 61.497,88.385 61.679,88.456C61.854,88.524 63.255,89.516 64.792,90.662C65.966,91.54 67.145,92.412 68.329,93.277L69.071,93.808L67.862,98.701C67.198,101.391 66.521,104.546 66.358,105.71C65.788,109.788 65.566,110.594 64.898,111.032C64.06,111.581 63.812,111.372 63.596,109.931C63.304,107.981 62.143,108.043 62.133,110.009C62.126,111.51 60.766,112.349 59.466,111.654C59.065,111.439 58.954,111.094 58.954,110.058C58.954,109.09 58.841,108.692 58.531,108.573C58.01,108.373 57.71,108.827 57.486,110.155C57.29,111.315 56.731,111.67 56.098,111.037C55.5,110.439 55.569,108.357 56.275,105.71C56.915,103.315 57.892,97.681 57.895,96.383C57.895,95.711 57.785,95.523 57.388,95.523C56.744,95.523 55.95,96.801 54.866,99.581C54.091,101.569 53.961,101.747 53.226,101.821C52.251,101.918 52.104,101.733 51.167,99.228C49.947,95.964 48.674,94.425 48.205,95.647C48.01,96.157 49.331,104.163 49.98,106.4C50.61,108.568 50.641,110.413 50.06,110.994C49.425,111.629 49.08,111.374 48.614,109.924C48.304,108.961 48.063,108.62 47.688,108.62C47.267,108.62 47.166,108.844 47.098,109.936C47.052,110.66 46.888,111.404 46.734,111.59C46.369,112.03 45.162,112.022 44.55,111.575M30.868,111.485C30.367,111.362 29.88,110.357 29.795,109.149C29.694,108.109 28.699,108.001 28.585,109.017C28.421,110.486 28.245,110.869 27.738,110.869C27.059,110.869 26.675,110.101 26.675,108.744C26.675,107.852 26.832,107.495 27.498,106.874C28.692,105.757 30.728,105.237 33.018,105.463C34.603,105.619 34.878,105.585 34.878,105.234C34.878,104.58 33.623,103.768 32.308,103.571C31.625,103.468 30.29,103.534 29.242,103.721C27.419,104.047 27.377,104.041 26.901,103.426C26.634,103.081 26.296,102.383 26.149,101.873C25.932,101.118 25.969,100.833 26.345,100.33C26.712,99.84 33.503,95.788 33.957,95.788C34.285,95.788 35.161,98.089 35.771,100.55C37.121,105.997 37.381,109.954 36.448,110.885C36.146,111.187 35.647,111.395 35.329,111.348C34.864,111.282 34.713,111.015 34.536,109.943C34.276,108.379 33.998,108.01 33.433,108.479C33.18,108.689 33.025,109.254 33.025,109.966C33.077,111.439 32.421,111.864 30.868,111.486M73.837,111.389C73.364,111.201 73.242,110.943 73.242,110.136C73.242,109.576 73.063,108.888 72.845,108.606C72.452,108.097 72.444,108.097 72.051,108.606C71.833,108.888 71.654,109.431 71.654,109.812C71.654,110.192 71.495,110.722 71.301,110.987C70.985,111.42 70.869,111.432 70.186,111.104C69.077,110.571 68.855,109.489 69.222,106.413C69.578,103.433 70.652,98.848 71.381,97.203C71.995,95.814 72.44,95.753 74.216,96.816C74.917,97.236 76.268,98 77.217,98.516C78.167,99.031 79.167,99.7 79.44,100.001C80.087,100.716 80.036,101.918 79.308,103.095C78.815,103.894 78.619,104.015 78.034,103.879C76.604,103.547 74.318,103.399 73.371,103.577C72.416,103.757 71.125,104.747 71.125,105.299C71.125,105.479 71.916,105.517 73.442,105.409C75.485,105.263 75.924,105.315 77.156,105.845C77.924,106.175 78.786,106.743 79.072,107.106C79.787,108.015 79.77,109.786 79.039,110.57C78.267,111.398 77.895,111.161 77.729,109.736C77.649,109.062 77.506,108.432 77.409,108.336C77,107.926 76.482,108.521 76.343,109.561C76.236,111.18 75.184,111.905 73.837,111.389M47.532,75.676C36.557,74.874 27.734,71.416 20.92,65.248C20.156,64.556 19.531,63.817 19.531,63.605C19.531,63.393 19.848,62.947 20.236,62.614L20.941,62.007L19.758,61.193C18.315,60.201 16.554,58.296 16.685,57.869C16.737,57.697 17.265,57.319 17.855,57.027C19.488,56.225 19.679,55.981 20.193,54.051C22.165,46.641 30.412,38.503 39.585,34.917C44.312,33.068 46.357,32.724 52.736,32.704C58.611,32.685 60.246,32.877 64.192,34.044C71.328,36.158 77.999,40.977 82.472,47.25C84.377,49.924 85.221,51.597 85.951,54.149C86.526,56.161 86.971,56.757 88.199,57.163C90.077,57.783 89.486,59.001 86.057,61.58L85.28,62.164L85.907,62.664C86.797,63.372 86.507,63.984 84.407,65.834C78.304,71.209 71.143,74.264 61.997,75.395C58.868,75.782 51.063,75.933 47.532,75.675M54.855,67.778C56.302,67.121 57.479,65.701 58.187,63.759C58.651,62.487 59,61.989 59.793,61.463C61.498,60.335 62.467,58.167 61.443,57.773C61.16,57.666 60.697,57.965 60.053,58.669C58.937,59.89 58.213,60.188 56.941,59.949C55.867,59.748 54.191,58.366 54.191,57.682C54.191,57.418 54.61,56.943 55.121,56.628C56.663,55.675 57.051,54.233 56.016,53.298C55.233,52.588 51.209,52.565 50.146,53.262C49.016,54.002 49.186,54.919 50.723,56.362C51.955,57.518 51.999,57.608 51.66,58.256C51.119,59.288 49.99,59.899 48.583,59.919C47.454,59.935 47.223,59.826 46.146,58.769C45.141,57.783 44.893,57.655 44.549,57.94C43.739,58.612 44.808,60.547 46.566,61.592C47.035,61.87 47.461,62.522 47.823,63.514C48.577,65.584 49.689,67.024 51.054,67.7C52.454,68.393 53.456,68.414 54.855,67.778M31.395,63.171C33.305,61.908 33.465,60.134 31.808,58.572C29.294,56.201 23.832,56.952 22.988,59.748C22.573,61.193 23.818,62.933 25.79,63.668C27.362,64.254 30.13,64.008 31.395,63.171M79.85,63.704C80.413,63.535 81.394,63.017 81.975,62.52C82.812,61.743 82.95,61.438 83.031,60.598C83.031,59.385 82.05,58.068 80.737,57.52C79.485,57.057 76.785,57.098 75.499,57.668C74.911,57.935 74.075,58.54 73.666,59.026C73.111,59.777 73.014,60.1 73.059,60.936C73.135,61.501 73.451,62.212 73.718,62.512C74.916,63.856 77.558,64.24 79.85,63.704ZM39.459,57.957C41.028,57.163 42.683,55.408 43.407,53.77C44.223,51.925 44.161,48.789 43.267,46.793C42.417,44.891 40.766,43.09 39.165,42.318C37.37,41.453 34.405,41.445 32.76,42.3C28.471,44.53 26.66,49.617 28.637,53.884C29.534,55.765 30.735,56.971 32.579,57.959C34.058,58.705 34.407,58.776 36.2,58.693C37.644,58.627 38.531,58.427 39.459,57.957M37.379,49.907C36.207,49.41 35.579,48.382 35.671,47.04C35.596,45.706 36.101,44.853 37.259,44.308C38.664,43.582 40.445,44.028 41.343,45.31C41.893,46.063 41.895,47.696 41.342,48.726C40.974,49.572 39.611,50.325 38.656,50.269C38.304,50.286 37.728,50.124 37.378,49.908M40.383,49.091C41.337,48.288 41.61,47.343 41.224,46.175C40.506,43.999 37.384,43.745 36.334,45.777C34.947,48.46 38.083,51.027 40.384,49.091M73.239,57.955C76.339,56.39 77.798,54.167 77.961,50.761C78.095,47.96 77.559,46.454 75.718,44.465C73.803,42.397 72.393,41.727 69.96,41.73C67.597,41.733 66.134,42.352 64.444,44.066C62.157,46.386 61.274,50.313 62.382,53.244C64.132,57.877 69.112,60.038 73.239,57.954M69.649,50.024C69.345,49.901 68.779,49.423 68.391,48.961C67.135,47.469 67.619,45.161 69.402,44.315C70.358,43.832 71.202,43.826 72.18,44.325C73.292,44.899 73.77,45.737 73.77,47.105C73.77,48.473 73.292,49.309 72.18,49.884C71.387,50.331 70.546,50.378 69.648,50.023L69.649,50.024ZM72.351,49.282C73.587,48.28 73.816,46.954 72.986,45.593C71.618,43.349 68.142,44.461 68.142,47.143C68.142,48.063 68.29,48.392 68.976,49.005C69.956,49.881 71.459,50.004 72.351,49.282M12.154,34.046C10.872,32.501 9.21,24.306 9.224,19.589C9.232,16.346 9.998,11.441 10.614,10.649C10.941,10.228 12.279,10.378 15.43,11.164C19.488,12.176 26.543,15.081 26.543,15.77C26.543,15.925 25.681,16.996 24.627,18.15L22.712,20.25L21.056,18.551C18.54,15.972 14.883,13.888 13.219,14.085C12.229,14.203 12.039,15.361 12.207,20.25C12.35,24.397 12.713,26.562 13.882,30.236C14.278,31.481 14.274,31.502 13.447,32.948C12.988,33.75 12.577,34.406 12.533,34.406C12.491,34.45 12.321,34.318 12.153,34.046M92.724,33.159C91.904,31.799 91.9,31.364 92.691,28.585C93.631,25.282 93.955,22.835 93.98,18.868C94.01,13.954 93.912,13.75 91.813,14.365C89.679,14.991 87.047,16.621 85.219,18.449C84.284,19.384 83.423,20.112 83.306,20.067C83.019,19.957 79.326,15.983 79.326,15.784C79.326,15.512 82.789,13.875 85.544,12.844C89.218,11.469 93.6,10.424 95.103,10.565C96.515,10.698 97.089,21.429 95.983,27.035C95.687,28.542 95.313,30.192 95.155,30.701C94.558,32.611 93.834,34.406 93.659,34.406C93.559,34.406 93.139,33.845 92.724,33.159" style="fill:rgb(94,94,94);fill-rule:nonzero;"/>
    </g>
</svg>
